<svg xmlns="http://www.w3.org/2000/svg" xmlns:v="https://svgstorm.com"
viewBox = "0 0 512 512"
width="512"
height="512">
<g fill="None" fill-opacity="0.0" stroke="#000000" stroke-opacity="0.01" stroke-width="0.3"><path d="
M 0.00 206.00 
C 8.11 196.55 21.40 195.43 32.25 190.81 C 43.09 186.18 41.97 168.86 47.26 159.25 C 52.56 149.64 56.41 133.39 65.00 126.00
C 58.19 115.81 60.97 108.92 53.20 98.75 C 45.43 88.58 55.15 79.30 66.75 68.75 C 78.35 58.20 85.80 45.29 96.30 52.71 C 106.81 60.13 114.65 56.61 124.00 65.00
C 129.84 60.34 136.61 58.88 144.08 54.08 C 151.54 49.27 158.18 48.65 164.70 45.65 C 171.21 42.65 180.19 41.52 186.75 38.41 C 193.32 35.30 191.13 25.31 195.71 19.70 C 200.30 14.08 196.99 3.72 206.00 0.00
L 0.00 0.00
L 0.00 206.00 Z"/>
</g>
<g fill="None" fill-opacity="0.0" stroke="#000000" stroke-opacity="0.98" stroke-width="0.3"><path d="
M 0.00 206.00 
L 0.00 254.00
C 6.36 263.36 14.46 263.90 24.25 267.19 C 34.05 270.48 40.07 273.87 41.20 285.25 C 42.33 296.62 48.35 301.67 51.71 311.30 C 55.07 320.94 60.76 329.89 65.00 337.00
C 60.86 344.33 57.85 350.73 54.29 358.30 C 50.73 365.87 46.24 372.47 55.25 380.75 C 64.25 389.03 72.41 397.01 80.75 406.25 C 89.10 415.49 96.18 408.78 103.77 405.42 C 111.36 402.07 117.91 399.58 126.00 396.00
C 131.73 401.97 140.88 406.10 149.75 409.39 C 158.63 412.69 164.33 418.13 174.77 419.57 C 185.21 421.02 191.13 425.50 193.26 435.75 C 195.39 446.00 199.42 451.40 204.00 461.00
C 210.55 460.60 218.77 461.28 226.00 461.00
C 224.63 486.72 241.83 506.39 264.00 511.00
C 265.91 511.19 268.91 510.15 270.00 512.00
L 471.00 512.00
C 491.36 509.04 508.89 491.18 512.00 471.00
L 512.00 267.00
C 510.27 265.85 511.19 262.89 511.00 261.00
C 508.78 238.48 485.10 220.37 461.00 223.00
C 461.34 216.71 460.51 209.61 461.00 204.00
C 451.09 197.33 438.83 195.03 428.25 190.61 C 417.67 186.18 419.11 168.59 413.74 159.25 C 408.36 149.91 404.89 133.04 396.00 126.00
C 398.82 118.10 402.64 111.75 405.58 104.23 C 408.51 96.71 415.54 89.70 406.75 81.25 C 397.96 72.80 389.29 64.93 381.25 55.75 C 373.21 46.58 366.57 50.18 358.75 54.19 C 350.92 58.20 344.27 60.55 337.00 65.00
C 328.30 58.55 313.00 52.78 303.23 47.42 C 293.46 42.07 275.35 43.50 270.29 32.70 C 265.22 21.90 265.48 7.48 254.00 0.00
L 206.00 0.00
C 196.99 3.72 200.30 14.08 195.71 19.70 C 191.13 25.31 193.32 35.30 186.75 38.41 C 180.19 41.52 171.21 42.65 164.70 45.65 C 158.18 48.65 151.54 49.27 144.08 54.08 C 136.61 58.88 129.84 60.34 124.00 65.00
C 114.65 56.61 106.81 60.13 96.30 52.71 C 85.80 45.29 78.35 58.20 66.75 68.75 C 55.15 79.30 45.43 88.58 53.20 98.75 C 60.97 108.92 58.19 115.81 65.00 126.00
C 56.41 133.39 52.56 149.64 47.26 159.25 C 41.97 168.86 43.09 186.18 32.25 190.81 C 21.40 195.43 8.11 196.55 0.00 206.00
M 248.00 16.00 
C 249.37 26.84 255.69 33.70 258.71 44.30 C 261.73 54.90 275.88 55.34 285.75 58.59 C 295.62 61.84 305.42 65.22 313.75 69.39 C 322.09 73.57 331.68 84.53 341.77 79.42 C 351.86 74.32 359.46 73.36 368.00 67.00
C 377.78 70.90 384.82 83.44 394.00 90.00
C 389.40 100.63 386.98 108.04 381.87 117.92 C 376.76 127.79 385.91 138.09 390.19 146.25 C 394.48 154.41 399.22 164.30 402.77 174.23 C 406.32 184.16 405.00 198.62 415.75 202.59 C 426.51 206.56 433.93 210.04 445.00 213.00
C 445.00 216.33 445.00 219.67 445.00 223.00
C 415.67 223.00 386.33 223.00 357.00 223.00
C 355.11 189.02 342.52 162.46 316.75 138.25 C 290.99 114.03 265.18 102.85 227.00 104.00 C 188.82 105.15 168.62 114.54 141.75 140.75 C 114.88 166.96 104.60 190.85 104.00 229.00 C 103.40 267.16 115.18 292.86 140.25 318.75 C 165.31 344.64 190.04 355.06 226.00 357.00
C 226.00 386.33 226.00 415.67 226.00 445.00
C 221.67 445.00 217.33 445.00 213.00 445.00
C 210.71 434.00 206.07 427.06 202.42 416.23 C 198.78 405.40 184.89 406.14 174.75 402.81 C 164.62 399.48 154.85 394.34 146.70 390.29 C 138.54 386.24 128.12 376.55 118.25 381.39 C 108.37 386.23 100.91 389.84 90.00 394.00
C 83.37 384.75 70.90 377.78 67.00 368.00
C 73.12 359.76 74.23 352.02 79.58 342.23 C 84.92 332.44 73.87 322.23 69.87 314.08 C 65.87 305.93 61.69 296.04 58.36 286.30 C 55.03 276.56 55.47 262.04 44.75 258.81 C 34.03 255.57 27.02 249.64 16.00 248.00
C 16.00 236.33 16.00 224.67 16.00 213.00
C 26.77 211.63 33.79 205.32 44.30 202.29 C 54.81 199.27 55.63 184.55 58.92 174.92 C 62.21 165.28 65.17 155.55 69.39 147.25 C 73.61 138.94 84.66 129.10 79.42 119.23 C 74.19 109.36 73.45 101.38 67.00 93.00
C 72.13 83.77 83.79 72.10 93.00 67.00
C 101.14 73.18 109.12 74.15 118.77 79.58 C 128.42 85.00 138.96 73.88 146.92 69.87 C 154.88 65.86 164.83 62.02 174.75 58.41 C 184.67 54.80 198.66 55.64 202.19 44.75 C 205.73 33.86 211.30 26.89 213.00 16.00
C 224.67 16.00 236.33 16.00 248.00 16.00
M 342.00 223.00 
C 304.73 225.02 259.39 214.66 238.25 237.25 C 217.11 259.84 229.35 302.83 226.00 342.00
C 197.50 336.15 182.68 335.87 161.25 317.74 C 139.82 299.61 129.19 280.10 122.42 257.23 C 115.66 234.36 122.05 201.84 130.26 183.25 C 138.47 164.65 162.43 141.04 180.75 131.61 C 199.07 122.17 230.21 116.30 254.30 122.71 C 278.38 129.11 296.50 136.95 315.25 157.75 C 334.00 178.55 335.43 195.54 342.00 223.00
M 269.00 238.00 
C 284.88 236.26 304.46 240.21 322.00 239.00 C 339.54 237.79 360.48 239.12 378.00 239.00 C 395.52 238.88 417.27 238.10 434.00 239.00 C 450.73 239.90 467.84 235.25 478.25 241.19 C 488.66 247.13 494.01 252.57 495.20 265.25 C 496.39 277.93 496.12 302.11 496.00 318.00 C 495.88 333.89 496.34 357.40 496.00 374.00 C 495.66 390.60 496.79 414.06 496.00 430.00 C 495.21 445.94 498.83 465.72 493.41 476.75 C 487.99 487.78 483.03 493.46 469.77 495.21 C 456.51 496.96 433.17 495.88 417.00 496.00 C 400.83 496.12 377.78 496.29 361.00 496.00 C 344.22 495.71 321.14 496.89 305.00 496.00 C 288.86 495.11 270.61 499.39 260.08 492.87 C 249.55 486.35 243.40 481.96 242.40 468.25 C 241.39 454.54 242.11 430.23 242.00 414.00 C 241.89 397.77 241.87 374.75 242.00 358.00 C 242.13 341.25 241.54 318.00 242.00 302.00 C 242.46 286.00 240.03 265.95 244.40 256.25 C 248.77 246.56 259.62 239.02 269.00 238.00 Z"/>
</g>
<g fill="None" fill-opacity="0.0" stroke="#000000" stroke-opacity="0.00" stroke-width="0.3"><path d="
M 511.00 261.00 
C 511.03 261.12 512.00 261.00 512.00 261.00
L 512.00 0.00
L 254.00 0.00
C 265.48 7.48 265.22 21.90 270.29 32.70 C 275.35 43.50 293.46 42.07 303.23 47.42 C 313.00 52.78 328.30 58.55 337.00 65.00
C 344.27 60.55 350.92 58.20 358.75 54.19 C 366.57 50.18 373.21 46.58 381.25 55.75 C 389.29 64.93 397.96 72.80 406.75 81.25 C 415.54 89.70 408.51 96.71 405.58 104.23 C 402.64 111.75 398.82 118.10 396.00 126.00
C 404.89 133.04 408.36 149.91 413.74 159.25 C 419.11 168.59 417.67 186.18 428.25 190.61 C 438.83 195.03 451.09 197.33 461.00 204.00
C 460.51 209.61 461.34 216.71 461.00 223.00
C 485.10 220.37 508.78 238.48 511.00 261.00 Z"/>
</g>
<g fill="None" fill-opacity="0.0" stroke="#000000" stroke-opacity="0.01" stroke-width="0.3"><path d="
M 248.00 16.00 
C 236.33 16.00 224.67 16.00 213.00 16.00
C 211.30 26.89 205.73 33.86 202.19 44.75 C 198.66 55.64 184.67 54.80 174.75 58.41 C 164.83 62.02 154.88 65.86 146.92 69.87 C 138.96 73.88 128.42 85.00 118.77 79.58 C 109.12 74.15 101.14 73.18 93.00 67.00
C 83.79 72.10 72.13 83.77 67.00 93.00
C 73.45 101.38 74.19 109.36 79.42 119.23 C 84.66 129.10 73.61 138.94 69.39 147.25 C 65.17 155.55 62.21 165.28 58.92 174.92 C 55.63 184.55 54.81 199.27 44.30 202.29 C 33.79 205.32 26.77 211.63 16.00 213.00
C 16.00 224.67 16.00 236.33 16.00 248.00
C 27.02 249.64 34.03 255.57 44.75 258.81 C 55.47 262.04 55.03 276.56 58.36 286.30 C 61.69 296.04 65.87 305.93 69.87 314.08 C 73.87 322.23 84.92 332.44 79.58 342.23 C 74.23 352.02 73.12 359.76 67.00 368.00
C 70.90 377.78 83.37 384.75 90.00 394.00
C 100.91 389.84 108.37 386.23 118.25 381.39 C 128.12 376.55 138.54 386.24 146.70 390.29 C 154.85 394.34 164.62 399.48 174.75 402.81 C 184.89 406.14 198.78 405.40 202.42 416.23 C 206.07 427.06 210.71 434.00 213.00 445.00
C 217.33 445.00 221.67 445.00 226.00 445.00
C 226.00 415.67 226.00 386.33 226.00 357.00
C 190.04 355.06 165.31 344.64 140.25 318.75 C 115.18 292.86 103.40 267.16 104.00 229.00 C 104.60 190.85 114.88 166.96 141.75 140.75 C 168.62 114.54 188.82 105.15 227.00 104.00 C 265.18 102.85 290.99 114.03 316.75 138.25 C 342.52 162.46 355.11 189.02 357.00 223.00
C 386.33 223.00 415.67 223.00 445.00 223.00
C 445.00 219.67 445.00 216.33 445.00 213.00
C 433.93 210.04 426.51 206.56 415.75 202.59 C 405.00 198.62 406.32 184.16 402.77 174.23 C 399.22 164.30 394.48 154.41 390.19 146.25 C 385.91 138.09 376.76 127.79 381.87 117.92 C 386.98 108.04 389.40 100.63 394.00 90.00
C 384.82 83.44 377.78 70.90 368.00 67.00
C 359.46 73.36 351.86 74.32 341.77 79.42 C 331.68 84.53 322.09 73.57 313.75 69.39 C 305.42 65.22 295.62 61.84 285.75 58.59 C 275.88 55.34 261.73 54.90 258.71 44.30 C 255.69 33.70 249.37 26.84 248.00 16.00 Z"/>
</g>
<g fill="None" fill-opacity="0.0" stroke="#000000" stroke-opacity="0.01" stroke-width="0.3"><path d="
M 342.00 223.00 
C 335.43 195.54 334.00 178.55 315.25 157.75 C 296.50 136.95 278.38 129.11 254.30 122.71 C 230.21 116.30 199.07 122.17 180.75 131.61 C 162.43 141.04 138.47 164.65 130.26 183.25 C 122.05 201.84 115.66 234.36 122.42 257.23 C 129.19 280.10 139.82 299.61 161.25 317.74 C 182.68 335.87 197.50 336.15 226.00 342.00
C 229.35 302.83 217.11 259.84 238.25 237.25 C 259.39 214.66 304.73 225.02 342.00 223.00 Z"/>
</g>
<g fill="None" fill-opacity="0.0" stroke="#000000" stroke-opacity="0.01" stroke-width="0.3"><path d="
M 269.00 238.00 
C 259.62 239.02 248.77 246.56 244.40 256.25 C 240.03 265.95 242.46 286.00 242.00 302.00 C 241.54 318.00 242.13 341.25 242.00 358.00 C 241.87 374.75 241.89 397.77 242.00 414.00 C 242.11 430.23 241.39 454.54 242.40 468.25 C 243.40 481.96 249.55 486.35 260.08 492.87 C 270.61 499.39 288.86 495.11 305.00 496.00 C 321.14 496.89 344.22 495.71 361.00 496.00 C 377.78 496.29 400.83 496.12 417.00 496.00 C 433.17 495.88 456.51 496.96 469.77 495.21 C 483.03 493.46 487.99 487.78 493.41 476.75 C 498.83 465.72 495.21 445.94 496.00 430.00 C 496.79 414.06 495.66 390.60 496.00 374.00 C 496.34 357.40 495.88 333.89 496.00 318.00 C 496.12 302.11 496.39 277.93 495.20 265.25 C 494.01 252.57 488.66 247.13 478.25 241.19 C 467.84 235.25 450.73 239.90 434.00 239.00 C 417.27 238.10 395.52 238.88 378.00 239.00 C 360.48 239.12 339.54 237.79 322.00 239.00 C 304.46 240.21 284.88 236.26 269.00 238.00
M 348.00 290.00 
C 385.41 291.67 424.62 291.67 462.00 290.00
C 463.54 291.98 465.26 294.91 468.00 295.00
C 466.60 296.97 468.78 299.50 468.00 302.00
C 459.55 309.38 447.30 305.33 434.00 306.00 C 420.70 306.67 405.75 305.66 392.00 306.00 C 378.25 306.34 362.90 305.74 349.00 306.00
C 343.02 334.69 298.95 330.93 296.00 306.00
C 289.40 306.58 282.16 304.79 276.00 307.00
C 273.84 305.84 273.22 301.81 270.00 302.00
C 270.63 299.84 270.60 297.23 270.00 295.00
C 272.33 294.86 274.94 292.39 275.00 290.00
C 281.51 292.23 289.08 290.41 296.00 291.00
C 298.41 266.23 343.04 262.71 348.00 290.00
M 430.00 360.00 
C 441.23 364.77 466.27 351.25 467.39 365.75 C 468.52 380.26 441.41 374.05 430.00 375.00
C 426.75 401.11 381.60 401.53 377.00 375.00
C 358.96 374.13 337.72 376.17 320.00 375.00 C 302.28 373.83 282.67 379.09 270.00 371.00
C 270.11 352.29 294.66 361.59 313.00 360.00 C 331.34 358.41 357.91 361.20 377.00 360.00
C 381.97 333.00 426.80 333.22 430.00 360.00
M 359.00 430.00 
C 378.51 431.03 406.32 428.62 425.00 430.00 C 443.68 431.38 473.14 421.86 466.00 444.00
C 450.84 446.17 432.91 444.64 415.00 445.00 C 397.09 445.36 376.18 444.73 358.00 445.00
C 356.06 471.28 308.22 471.32 306.00 445.00
C 293.37 443.25 278.16 449.11 270.00 441.00
C 267.56 422.56 291.79 432.33 306.00 430.00
C 307.88 403.32 355.46 403.66 359.00 430.00 Z"/>
</g>
<g fill="None" fill-opacity="0.0" stroke="#000000" stroke-opacity="0.00" stroke-width="0.3"><path d="
M 0.00 512.00 
L 264.00 512.00
C 264.00 511.50 264.00 511.00 264.00 511.00
C 241.83 506.39 224.63 486.72 226.00 461.00
C 218.77 461.28 210.55 460.60 204.00 461.00
C 199.42 451.40 195.39 446.00 193.26 435.75 C 191.13 425.50 185.21 421.02 174.77 419.57 C 164.33 418.13 158.63 412.69 149.75 409.39 C 140.88 406.10 131.73 401.97 126.00 396.00
C 117.91 399.58 111.36 402.07 103.77 405.42 C 96.18 408.78 89.10 415.49 80.75 406.25 C 72.41 397.01 64.25 389.03 55.25 380.75 C 46.24 372.47 50.73 365.87 54.29 358.30 C 57.85 350.73 60.86 344.33 65.00 337.00
C 60.76 329.89 55.07 320.94 51.71 311.30 C 48.35 301.67 42.33 296.62 41.20 285.25 C 40.07 273.87 34.05 270.48 24.25 267.19 C 14.46 263.90 6.36 263.36 0.00 254.00
L 0.00 512.00 Z"/>
</g>
<g fill="None" fill-opacity="0.0" stroke="#000000" stroke-opacity="0.56" stroke-width="0.3"><path d="
M 512.00 267.00 
L 512.00 261.00
C 512.00 261.00 511.03 261.12 511.00 261.00
C 511.19 262.89 510.27 265.85 512.00 267.00 Z"/>
</g>
<g fill="None" fill-opacity="0.0" stroke="#000000" stroke-opacity="0.98" stroke-width="0.3"><path d="
M 348.00 290.00 
C 343.04 262.71 298.41 266.23 296.00 291.00
C 289.08 290.41 281.51 292.23 275.00 290.00
C 274.94 292.39 272.33 294.86 270.00 295.00
C 270.60 297.23 270.63 299.84 270.00 302.00
C 273.22 301.81 273.84 305.84 276.00 307.00
C 282.16 304.79 289.40 306.58 296.00 306.00
C 298.95 330.93 343.02 334.69 349.00 306.00
C 362.90 305.74 378.25 306.34 392.00 306.00 C 405.75 305.66 420.70 306.67 434.00 306.00 C 447.30 305.33 459.55 309.38 468.00 302.00
C 468.78 299.50 466.60 296.97 468.00 295.00
C 465.26 294.91 463.54 291.98 462.00 290.00
C 424.62 291.67 385.41 291.67 348.00 290.00
M 320.00 286.00 
C 334.02 283.46 340.32 304.82 325.75 309.80 C 311.18 314.78 303.29 289.03 320.00 286.00 Z"/>
</g>
<g fill="None" fill-opacity="0.0" stroke="#000000" stroke-opacity="0.06" stroke-width="0.3"><path d="
M 320.00 286.00 
C 303.29 289.03 311.18 314.78 325.75 309.80 C 340.32 304.82 334.02 283.46 320.00 286.00 Z"/>
</g>
<g fill="None" fill-opacity="0.0" stroke="#000000" stroke-opacity="0.98" stroke-width="0.3"><path d="
M 430.00 360.00 
C 426.80 333.22 381.97 333.00 377.00 360.00
C 357.91 361.20 331.34 358.41 313.00 360.00 C 294.66 361.59 270.11 352.29 270.00 371.00
C 282.67 379.09 302.28 373.83 320.00 375.00 C 337.72 376.17 358.96 374.13 377.00 375.00
C 381.60 401.53 426.75 401.11 430.00 375.00
C 441.41 374.05 468.52 380.26 467.39 365.75 C 466.27 351.25 441.23 364.77 430.00 360.00
M 391.00 365.00 
C 393.41 359.09 402.41 351.47 409.92 357.13 C 417.43 362.79 417.49 372.38 410.23 377.57 C 402.97 382.76 390.67 375.84 391.00 365.00 Z"/>
</g>
<g fill="None" fill-opacity="0.0" stroke="#000000" stroke-opacity="0.04" stroke-width="0.3"><path d="
M 391.00 365.00 
C 390.67 375.84 402.97 382.76 410.23 377.57 C 417.49 372.38 417.43 362.79 409.92 357.13 C 402.41 351.47 393.41 359.09 391.00 365.00 Z"/>
</g>
<g fill="None" fill-opacity="0.0" stroke="#000000" stroke-opacity="0.98" stroke-width="0.3"><path d="
M 359.00 430.00 
C 355.46 403.66 307.88 403.32 306.00 430.00
C 291.79 432.33 267.56 422.56 270.00 441.00
C 278.16 449.11 293.37 443.25 306.00 445.00
C 308.22 471.32 356.06 471.28 358.00 445.00
C 376.18 444.73 397.09 445.36 415.00 445.00 C 432.91 444.64 450.84 446.17 466.00 444.00
C 473.14 421.86 443.68 431.38 425.00 430.00 C 406.32 428.62 378.51 431.03 359.00 430.00
M 330.00 425.00 
C 344.70 422.55 348.99 446.45 334.25 449.26 C 319.50 452.07 314.13 427.65 330.00 425.00 Z"/>
</g>
<g fill="None" fill-opacity="0.0" stroke="#000000" stroke-opacity="0.03" stroke-width="0.3"><path d="
M 330.00 425.00 
C 314.13 427.65 319.50 452.07 334.25 449.26 C 348.99 446.45 344.70 422.55 330.00 425.00 Z"/>
</g>
<g fill="None" fill-opacity="0.0" stroke="#000000" stroke-opacity="0.04" stroke-width="0.3"><path d="
M 471.00 512.00 
L 512.00 512.00
L 512.00 471.00
C 508.89 491.18 491.36 509.04 471.00 512.00 Z"/>
</g>
<g fill="None" fill-opacity="0.0" stroke="#000000" stroke-opacity="0.51" stroke-width="0.3"><path d="
M 264.00 512.00 
L 270.00 512.00
C 268.91 510.15 265.91 511.19 264.00 511.00
C 264.00 511.00 264.00 511.50 264.00 512.00 Z"/>
</g>
<g fill="#000000" fill-opacity="0.01" stroke="None">
<path d="
M 0.00 206.00 
C 8.11 196.55 21.40 195.43 32.25 190.81 C 43.09 186.18 41.97 168.86 47.26 159.25 C 52.56 149.64 56.41 133.39 65.00 126.00
C 58.19 115.81 60.97 108.92 53.20 98.75 C 45.43 88.58 55.15 79.30 66.75 68.75 C 78.35 58.20 85.80 45.29 96.30 52.71 C 106.81 60.13 114.65 56.61 124.00 65.00
C 129.84 60.34 136.61 58.88 144.08 54.08 C 151.54 49.27 158.18 48.65 164.70 45.65 C 171.21 42.65 180.19 41.52 186.75 38.41 C 193.32 35.30 191.13 25.31 195.71 19.70 C 200.30 14.08 196.99 3.72 206.00 0.00
L 0.00 0.00
L 0.00 206.00 Z"/>
</g>
<g fill="#000000" fill-opacity="0.98" stroke="None">
<path d="
M 0.00 206.00 
L 0.00 254.00
C 6.36 263.36 14.46 263.90 24.25 267.19 C 34.05 270.48 40.07 273.87 41.20 285.25 C 42.33 296.62 48.35 301.67 51.71 311.30 C 55.07 320.94 60.76 329.89 65.00 337.00
C 60.86 344.33 57.85 350.73 54.29 358.30 C 50.73 365.87 46.24 372.47 55.25 380.75 C 64.25 389.03 72.41 397.01 80.75 406.25 C 89.10 415.49 96.18 408.78 103.77 405.42 C 111.36 402.07 117.91 399.58 126.00 396.00
C 131.73 401.97 140.88 406.10 149.75 409.39 C 158.63 412.69 164.33 418.13 174.77 419.57 C 185.21 421.02 191.13 425.50 193.26 435.75 C 195.39 446.00 199.42 451.40 204.00 461.00
C 210.55 460.60 218.77 461.28 226.00 461.00
C 224.63 486.72 241.83 506.39 264.00 511.00
C 265.91 511.19 268.91 510.15 270.00 512.00
L 471.00 512.00
C 491.36 509.04 508.89 491.18 512.00 471.00
L 512.00 267.00
C 510.27 265.85 511.19 262.89 511.00 261.00
C 508.78 238.48 485.10 220.37 461.00 223.00
C 461.34 216.71 460.51 209.61 461.00 204.00
C 451.09 197.33 438.83 195.03 428.25 190.61 C 417.67 186.18 419.11 168.59 413.74 159.25 C 408.36 149.91 404.89 133.04 396.00 126.00
C 398.82 118.10 402.64 111.75 405.58 104.23 C 408.51 96.71 415.54 89.70 406.75 81.25 C 397.96 72.80 389.29 64.93 381.25 55.75 C 373.21 46.58 366.57 50.18 358.75 54.19 C 350.92 58.20 344.27 60.55 337.00 65.00
C 328.30 58.55 313.00 52.78 303.23 47.42 C 293.46 42.07 275.35 43.50 270.29 32.70 C 265.22 21.90 265.48 7.48 254.00 0.00
L 206.00 0.00
C 196.99 3.72 200.30 14.08 195.71 19.70 C 191.13 25.31 193.32 35.30 186.75 38.41 C 180.19 41.52 171.21 42.65 164.70 45.65 C 158.18 48.65 151.54 49.27 144.08 54.08 C 136.61 58.88 129.84 60.34 124.00 65.00
C 114.65 56.61 106.81 60.13 96.30 52.71 C 85.80 45.29 78.35 58.20 66.75 68.75 C 55.15 79.30 45.43 88.58 53.20 98.75 C 60.97 108.92 58.19 115.81 65.00 126.00
C 56.41 133.39 52.56 149.64 47.26 159.25 C 41.97 168.86 43.09 186.18 32.25 190.81 C 21.40 195.43 8.11 196.55 0.00 206.00
M 248.00 16.00 
C 249.37 26.84 255.69 33.70 258.71 44.30 C 261.73 54.90 275.88 55.34 285.75 58.59 C 295.62 61.84 305.42 65.22 313.75 69.39 C 322.09 73.57 331.68 84.53 341.77 79.42 C 351.86 74.32 359.46 73.36 368.00 67.00
C 377.78 70.90 384.82 83.44 394.00 90.00
C 389.40 100.63 386.98 108.04 381.87 117.92 C 376.76 127.79 385.91 138.09 390.19 146.25 C 394.48 154.41 399.22 164.30 402.77 174.23 C 406.32 184.16 405.00 198.62 415.75 202.59 C 426.51 206.56 433.93 210.04 445.00 213.00
C 445.00 216.33 445.00 219.67 445.00 223.00
C 415.67 223.00 386.33 223.00 357.00 223.00
C 355.11 189.02 342.52 162.46 316.75 138.25 C 290.99 114.03 265.18 102.85 227.00 104.00 C 188.82 105.15 168.62 114.54 141.75 140.75 C 114.88 166.96 104.60 190.85 104.00 229.00 C 103.40 267.16 115.18 292.86 140.25 318.75 C 165.31 344.64 190.04 355.06 226.00 357.00
C 226.00 386.33 226.00 415.67 226.00 445.00
C 221.67 445.00 217.33 445.00 213.00 445.00
C 210.71 434.00 206.07 427.06 202.42 416.23 C 198.78 405.40 184.89 406.14 174.75 402.81 C 164.62 399.48 154.85 394.34 146.70 390.29 C 138.54 386.24 128.12 376.55 118.25 381.39 C 108.37 386.23 100.91 389.84 90.00 394.00
C 83.37 384.75 70.90 377.78 67.00 368.00
C 73.12 359.76 74.23 352.02 79.58 342.23 C 84.92 332.44 73.87 322.23 69.87 314.08 C 65.87 305.93 61.69 296.04 58.36 286.30 C 55.03 276.56 55.47 262.04 44.75 258.81 C 34.03 255.57 27.02 249.64 16.00 248.00
C 16.00 236.33 16.00 224.67 16.00 213.00
C 26.77 211.63 33.79 205.32 44.30 202.29 C 54.81 199.27 55.63 184.55 58.92 174.92 C 62.21 165.28 65.17 155.55 69.39 147.25 C 73.61 138.94 84.66 129.10 79.42 119.23 C 74.19 109.36 73.45 101.38 67.00 93.00
C 72.13 83.77 83.79 72.10 93.00 67.00
C 101.14 73.18 109.12 74.15 118.77 79.58 C 128.42 85.00 138.96 73.88 146.92 69.87 C 154.88 65.86 164.83 62.02 174.75 58.41 C 184.67 54.80 198.66 55.64 202.19 44.75 C 205.73 33.86 211.30 26.89 213.00 16.00
C 224.67 16.00 236.33 16.00 248.00 16.00
M 342.00 223.00 
C 304.73 225.02 259.39 214.66 238.25 237.25 C 217.11 259.84 229.35 302.83 226.00 342.00
C 197.50 336.15 182.68 335.87 161.25 317.74 C 139.82 299.61 129.19 280.10 122.42 257.23 C 115.66 234.36 122.05 201.84 130.26 183.25 C 138.47 164.65 162.43 141.04 180.75 131.61 C 199.07 122.17 230.21 116.30 254.30 122.71 C 278.38 129.11 296.50 136.95 315.25 157.75 C 334.00 178.55 335.43 195.54 342.00 223.00
M 269.00 238.00 
C 284.88 236.26 304.46 240.21 322.00 239.00 C 339.54 237.79 360.48 239.12 378.00 239.00 C 395.52 238.88 417.27 238.10 434.00 239.00 C 450.73 239.90 467.84 235.25 478.25 241.19 C 488.66 247.13 494.01 252.57 495.20 265.25 C 496.39 277.93 496.12 302.11 496.00 318.00 C 495.88 333.89 496.34 357.40 496.00 374.00 C 495.66 390.60 496.79 414.06 496.00 430.00 C 495.21 445.94 498.83 465.72 493.41 476.75 C 487.99 487.78 483.03 493.46 469.77 495.21 C 456.51 496.96 433.17 495.88 417.00 496.00 C 400.83 496.12 377.78 496.29 361.00 496.00 C 344.22 495.71 321.14 496.89 305.00 496.00 C 288.86 495.11 270.61 499.39 260.08 492.87 C 249.55 486.35 243.40 481.96 242.40 468.25 C 241.39 454.54 242.11 430.23 242.00 414.00 C 241.89 397.77 241.87 374.75 242.00 358.00 C 242.13 341.25 241.54 318.00 242.00 302.00 C 242.46 286.00 240.03 265.95 244.40 256.25 C 248.77 246.56 259.62 239.02 269.00 238.00 Z"/>
</g>
<g fill="#000000" fill-opacity="0.00" stroke="None">
<path d="
M 511.00 261.00 
C 511.03 261.12 512.00 261.00 512.00 261.00
L 512.00 0.00
L 254.00 0.00
C 265.48 7.48 265.22 21.90 270.29 32.70 C 275.35 43.50 293.46 42.07 303.23 47.42 C 313.00 52.78 328.30 58.55 337.00 65.00
C 344.27 60.55 350.92 58.20 358.75 54.19 C 366.57 50.18 373.21 46.58 381.25 55.75 C 389.29 64.93 397.96 72.80 406.75 81.25 C 415.54 89.70 408.51 96.71 405.58 104.23 C 402.64 111.75 398.82 118.10 396.00 126.00
C 404.89 133.04 408.36 149.91 413.74 159.25 C 419.11 168.59 417.67 186.18 428.25 190.61 C 438.83 195.03 451.09 197.33 461.00 204.00
C 460.51 209.61 461.34 216.71 461.00 223.00
C 485.10 220.37 508.78 238.48 511.00 261.00 Z"/>
</g>
<g fill="#000000" fill-opacity="0.01" stroke="None">
<path d="
M 248.00 16.00 
C 236.33 16.00 224.67 16.00 213.00 16.00
C 211.30 26.89 205.73 33.86 202.19 44.75 C 198.66 55.64 184.67 54.80 174.75 58.41 C 164.83 62.02 154.88 65.86 146.92 69.87 C 138.96 73.88 128.42 85.00 118.77 79.58 C 109.12 74.15 101.14 73.18 93.00 67.00
C 83.79 72.10 72.13 83.77 67.00 93.00
C 73.45 101.38 74.19 109.36 79.42 119.23 C 84.66 129.10 73.61 138.94 69.39 147.25 C 65.17 155.55 62.21 165.28 58.92 174.92 C 55.63 184.55 54.81 199.27 44.30 202.29 C 33.79 205.32 26.77 211.63 16.00 213.00
C 16.00 224.67 16.00 236.33 16.00 248.00
C 27.02 249.64 34.03 255.57 44.75 258.81 C 55.47 262.04 55.03 276.56 58.36 286.30 C 61.69 296.04 65.87 305.93 69.87 314.08 C 73.87 322.23 84.92 332.44 79.58 342.23 C 74.23 352.02 73.12 359.76 67.00 368.00
C 70.90 377.78 83.37 384.75 90.00 394.00
C 100.91 389.84 108.37 386.23 118.25 381.39 C 128.12 376.55 138.54 386.24 146.70 390.29 C 154.85 394.34 164.62 399.48 174.75 402.81 C 184.89 406.14 198.78 405.40 202.42 416.23 C 206.07 427.06 210.71 434.00 213.00 445.00
C 217.33 445.00 221.67 445.00 226.00 445.00
C 226.00 415.67 226.00 386.33 226.00 357.00
C 190.04 355.06 165.31 344.64 140.25 318.75 C 115.18 292.86 103.40 267.16 104.00 229.00 C 104.60 190.85 114.88 166.96 141.75 140.75 C 168.62 114.54 188.82 105.15 227.00 104.00 C 265.18 102.85 290.99 114.03 316.75 138.25 C 342.52 162.46 355.11 189.02 357.00 223.00
C 386.33 223.00 415.67 223.00 445.00 223.00
C 445.00 219.67 445.00 216.33 445.00 213.00
C 433.93 210.04 426.51 206.56 415.75 202.59 C 405.00 198.62 406.32 184.16 402.77 174.23 C 399.22 164.30 394.48 154.41 390.19 146.25 C 385.91 138.09 376.76 127.79 381.87 117.92 C 386.98 108.04 389.40 100.63 394.00 90.00
C 384.82 83.44 377.78 70.90 368.00 67.00
C 359.46 73.36 351.86 74.32 341.77 79.42 C 331.68 84.53 322.09 73.57 313.75 69.39 C 305.42 65.22 295.62 61.84 285.75 58.59 C 275.88 55.34 261.73 54.90 258.71 44.30 C 255.69 33.70 249.37 26.84 248.00 16.00 Z"/>
</g>
<g fill="#000000" fill-opacity="0.01" stroke="None">
<path d="
M 342.00 223.00 
C 335.43 195.54 334.00 178.55 315.25 157.75 C 296.50 136.95 278.38 129.11 254.30 122.71 C 230.21 116.30 199.07 122.17 180.75 131.61 C 162.43 141.04 138.47 164.65 130.26 183.25 C 122.05 201.84 115.66 234.36 122.42 257.23 C 129.19 280.10 139.82 299.61 161.25 317.74 C 182.68 335.87 197.50 336.15 226.00 342.00
C 229.35 302.83 217.11 259.84 238.25 237.25 C 259.39 214.66 304.73 225.02 342.00 223.00 Z"/>
</g>
<g fill="#000000" fill-opacity="0.01" stroke="None">
<path d="
M 269.00 238.00 
C 259.62 239.02 248.77 246.56 244.40 256.25 C 240.03 265.95 242.46 286.00 242.00 302.00 C 241.54 318.00 242.13 341.25 242.00 358.00 C 241.87 374.75 241.89 397.77 242.00 414.00 C 242.11 430.23 241.39 454.54 242.40 468.25 C 243.40 481.96 249.55 486.35 260.08 492.87 C 270.61 499.39 288.86 495.11 305.00 496.00 C 321.14 496.89 344.22 495.71 361.00 496.00 C 377.78 496.29 400.83 496.12 417.00 496.00 C 433.17 495.88 456.51 496.96 469.77 495.21 C 483.03 493.46 487.99 487.78 493.41 476.75 C 498.83 465.72 495.21 445.94 496.00 430.00 C 496.79 414.06 495.66 390.60 496.00 374.00 C 496.34 357.40 495.88 333.89 496.00 318.00 C 496.12 302.11 496.39 277.93 495.20 265.25 C 494.01 252.57 488.66 247.13 478.25 241.19 C 467.84 235.25 450.73 239.90 434.00 239.00 C 417.27 238.10 395.52 238.88 378.00 239.00 C 360.48 239.12 339.54 237.79 322.00 239.00 C 304.46 240.21 284.88 236.26 269.00 238.00
M 348.00 290.00 
C 385.41 291.67 424.62 291.67 462.00 290.00
C 463.54 291.98 465.26 294.91 468.00 295.00
C 466.60 296.97 468.78 299.50 468.00 302.00
C 459.55 309.38 447.30 305.33 434.00 306.00 C 420.70 306.67 405.75 305.66 392.00 306.00 C 378.25 306.34 362.90 305.74 349.00 306.00
C 343.02 334.69 298.95 330.93 296.00 306.00
C 289.40 306.58 282.16 304.79 276.00 307.00
C 273.84 305.84 273.22 301.81 270.00 302.00
C 270.63 299.84 270.60 297.23 270.00 295.00
C 272.33 294.86 274.94 292.39 275.00 290.00
C 281.51 292.23 289.08 290.41 296.00 291.00
C 298.41 266.23 343.04 262.71 348.00 290.00
M 430.00 360.00 
C 441.23 364.77 466.27 351.25 467.39 365.75 C 468.52 380.26 441.41 374.05 430.00 375.00
C 426.75 401.11 381.60 401.53 377.00 375.00
C 358.96 374.13 337.72 376.17 320.00 375.00 C 302.28 373.83 282.67 379.09 270.00 371.00
C 270.11 352.29 294.66 361.59 313.00 360.00 C 331.34 358.41 357.91 361.20 377.00 360.00
C 381.97 333.00 426.80 333.22 430.00 360.00
M 359.00 430.00 
C 378.51 431.03 406.32 428.62 425.00 430.00 C 443.68 431.38 473.14 421.86 466.00 444.00
C 450.84 446.17 432.91 444.64 415.00 445.00 C 397.09 445.36 376.18 444.73 358.00 445.00
C 356.06 471.28 308.22 471.32 306.00 445.00
C 293.37 443.25 278.16 449.11 270.00 441.00
C 267.56 422.56 291.79 432.33 306.00 430.00
C 307.88 403.32 355.46 403.66 359.00 430.00 Z"/>
</g>
<g fill="#000000" fill-opacity="0.00" stroke="None">
<path d="
M 0.00 512.00 
L 264.00 512.00
C 264.00 511.50 264.00 511.00 264.00 511.00
C 241.83 506.39 224.63 486.72 226.00 461.00
C 218.77 461.28 210.55 460.60 204.00 461.00
C 199.42 451.40 195.39 446.00 193.26 435.75 C 191.13 425.50 185.21 421.02 174.77 419.57 C 164.33 418.13 158.63 412.69 149.75 409.39 C 140.88 406.10 131.73 401.97 126.00 396.00
C 117.91 399.58 111.36 402.07 103.77 405.42 C 96.18 408.78 89.10 415.49 80.75 406.25 C 72.41 397.01 64.25 389.03 55.25 380.75 C 46.24 372.47 50.73 365.87 54.29 358.30 C 57.85 350.73 60.86 344.33 65.00 337.00
C 60.76 329.89 55.07 320.94 51.71 311.30 C 48.35 301.67 42.33 296.62 41.20 285.25 C 40.07 273.87 34.05 270.48 24.25 267.19 C 14.46 263.90 6.36 263.36 0.00 254.00
L 0.00 512.00 Z"/>
</g>
<g fill="#000000" fill-opacity="0.56" stroke="None">
<path d="
M 512.00 267.00 
L 512.00 261.00
C 512.00 261.00 511.03 261.12 511.00 261.00
C 511.19 262.89 510.27 265.85 512.00 267.00 Z"/>
</g>
<g fill="#000000" fill-opacity="0.98" stroke="None">
<path d="
M 348.00 290.00 
C 343.04 262.71 298.41 266.23 296.00 291.00
C 289.08 290.41 281.51 292.23 275.00 290.00
C 274.94 292.39 272.33 294.86 270.00 295.00
C 270.60 297.23 270.63 299.84 270.00 302.00
C 273.22 301.81 273.84 305.84 276.00 307.00
C 282.16 304.79 289.40 306.58 296.00 306.00
C 298.95 330.93 343.02 334.69 349.00 306.00
C 362.90 305.74 378.25 306.34 392.00 306.00 C 405.75 305.66 420.70 306.67 434.00 306.00 C 447.30 305.33 459.55 309.38 468.00 302.00
C 468.78 299.50 466.60 296.97 468.00 295.00
C 465.26 294.91 463.54 291.98 462.00 290.00
C 424.62 291.67 385.41 291.67 348.00 290.00
M 320.00 286.00 
C 334.02 283.46 340.32 304.82 325.75 309.80 C 311.18 314.78 303.29 289.03 320.00 286.00 Z"/>
</g>
<g fill="#000000" fill-opacity="0.06" stroke="None">
<path d="
M 320.00 286.00 
C 303.29 289.03 311.18 314.78 325.75 309.80 C 340.32 304.82 334.02 283.46 320.00 286.00 Z"/>
</g>
<g fill="#000000" fill-opacity="0.98" stroke="None">
<path d="
M 430.00 360.00 
C 426.80 333.22 381.97 333.00 377.00 360.00
C 357.91 361.20 331.34 358.41 313.00 360.00 C 294.66 361.59 270.11 352.29 270.00 371.00
C 282.67 379.09 302.28 373.83 320.00 375.00 C 337.72 376.17 358.96 374.13 377.00 375.00
C 381.60 401.53 426.75 401.11 430.00 375.00
C 441.41 374.05 468.52 380.26 467.39 365.75 C 466.27 351.25 441.23 364.77 430.00 360.00
M 391.00 365.00 
C 393.41 359.09 402.41 351.47 409.92 357.13 C 417.43 362.79 417.49 372.38 410.23 377.57 C 402.97 382.76 390.67 375.84 391.00 365.00 Z"/>
</g>
<g fill="#000000" fill-opacity="0.04" stroke="None">
<path d="
M 391.00 365.00 
C 390.67 375.84 402.97 382.76 410.23 377.57 C 417.49 372.38 417.43 362.79 409.92 357.13 C 402.41 351.47 393.41 359.09 391.00 365.00 Z"/>
</g>
<g fill="#000000" fill-opacity="0.98" stroke="None">
<path d="
M 359.00 430.00 
C 355.46 403.66 307.88 403.32 306.00 430.00
C 291.79 432.33 267.56 422.56 270.00 441.00
C 278.16 449.11 293.37 443.25 306.00 445.00
C 308.22 471.32 356.06 471.28 358.00 445.00
C 376.18 444.73 397.09 445.36 415.00 445.00 C 432.91 444.64 450.84 446.17 466.00 444.00
C 473.14 421.86 443.68 431.38 425.00 430.00 C 406.32 428.62 378.51 431.03 359.00 430.00
M 330.00 425.00 
C 344.70 422.55 348.99 446.45 334.25 449.26 C 319.50 452.07 314.13 427.65 330.00 425.00 Z"/>
</g>
<g fill="#000000" fill-opacity="0.03" stroke="None">
<path d="
M 330.00 425.00 
C 314.13 427.65 319.50 452.07 334.25 449.26 C 348.99 446.45 344.70 422.55 330.00 425.00 Z"/>
</g>
<g fill="#000000" fill-opacity="0.04" stroke="None">
<path d="
M 471.00 512.00 
L 512.00 512.00
L 512.00 471.00
C 508.89 491.18 491.36 509.04 471.00 512.00 Z"/>
</g>
<g fill="#000000" fill-opacity="0.51" stroke="None">
<path d="
M 264.00 512.00 
L 270.00 512.00
C 268.91 510.15 265.91 511.19 264.00 511.00
C 264.00 511.00 264.00 511.50 264.00 512.00 Z"/>
</g>
</svg>