<svg xmlns="http://www.w3.org/2000/svg" xmlns:v="https://svgstorm.com"
viewBox = "0 0 512 512"
width="512"
height="512">
<g fill="None" fill-opacity="0.0" stroke="#000000" stroke-opacity="0.04" stroke-width="0.3"><path d="
M 0.00 60.00 
C 2.38 26.86 28.02 1.34 62.00 0.00
L 0.00 0.00
L 0.00 60.00 Z"/>
</g>
<g fill="None" fill-opacity="0.0" stroke="#000000" stroke-opacity="0.99" stroke-width="0.3"><path d="
M 0.00 60.00 
L 0.00 423.00
C 3.29 440.36 10.40 456.80 26.77 468.24 C 43.14 479.67 53.78 479.22 82.00 479.00 C 110.22 478.78 147.00 479.17 176.00 479.00
C 176.00 485.00 176.00 491.00 176.00 497.00
C 168.54 497.15 161.96 496.25 157.00 500.00
C 157.36 504.04 155.60 506.74 159.00 511.00
C 160.17 509.75 162.33 510.66 163.00 512.00
L 476.00 512.00
C 476.97 510.36 479.61 511.41 481.00 510.00
C 487.68 492.78 463.21 497.33 449.00 497.00
C 449.00 491.00 449.00 485.00 449.00 479.00
C 481.12 480.62 508.15 453.18 512.00 423.00
L 512.00 53.00
C 506.47 26.99 483.75 2.72 455.00 0.00
L 62.00 0.00
C 28.02 1.34 2.38 26.86 0.00 60.00
M 449.00 465.00 
C 449.00 459.67 449.00 454.33 449.00 449.00
C 460.83 448.80 471.87 444.09 478.13 432.08 C 484.39 420.07 481.53 403.25 482.00 384.00 C 482.47 364.75 481.84 340.13 482.00 320.00 C 482.16 299.87 482.04 276.21 482.00 256.00 C 481.96 235.79 482.27 211.54 482.00 192.00 C 481.73 172.46 482.68 145.68 482.00 128.00 C 481.32 110.32 476.96 108.24 465.75 97.81 C 454.53 87.38 442.57 90.29 423.00 90.00 C 403.43 89.71 379.48 90.11 359.00 90.00 C 338.52 89.89 315.81 89.99 295.00 90.00 C 274.19 90.01 251.80 89.87 231.00 90.00 C 210.20 90.13 187.42 89.67 167.00 90.00 C 146.58 90.33 122.45 89.24 103.00 90.00 C 83.55 90.76 65.51 86.69 53.23 93.58 C 40.95 100.46 34.69 104.64 31.94 119.08 C 29.19 133.53 29.92 159.22 30.00 178.00 C 30.08 196.78 29.82 222.21 30.00 242.00 C 30.18 261.79 29.60 286.23 30.00 306.00 C 30.40 325.77 29.10 351.30 30.00 370.00 C 30.90 388.70 27.22 412.98 31.80 426.25 C 36.38 439.52 41.32 444.74 54.75 448.59 C 68.18 452.44 93.90 449.28 112.00 450.00 C 130.10 450.72 157.56 450.29 176.00 449.00
C 176.00 454.33 176.00 459.67 176.00 465.00
C 156.11 465.07 128.08 464.90 109.00 465.00 C 89.92 465.10 63.68 465.95 49.77 462.23 C 35.86 458.51 29.97 452.70 21.87 441.08 C 13.77 429.46 15.53 420.61 15.00 400.00 C 14.47 379.39 15.28 353.73 15.00 332.00 C 14.72 310.27 15.21 287.38 15.00 265.00 C 14.79 242.62 15.29 219.91 15.00 197.00 C 14.71 174.09 15.55 152.61 15.00 129.00 C 14.45 105.39 16.06 87.35 15.33 62.33 C 14.60 37.31 38.60 14.00 64.02 15.02 C 89.45 16.04 107.27 14.52 131.00 15.00 C 154.73 15.48 176.09 14.76 199.00 15.00 C 221.91 15.24 244.75 14.84 267.00 15.00 C 289.25 15.16 312.61 14.81 334.00 15.00 C 355.39 15.19 382.16 14.67 402.00 15.00 C 421.84 15.33 446.64 13.75 460.75 16.39 C 474.86 19.04 481.78 27.27 490.59 38.75 C 499.39 50.24 496.17 62.56 497.00 83.00 C 497.83 103.44 496.64 129.36 497.00 151.00 C 497.36 172.64 496.89 195.69 497.00 218.00 C 497.11 240.31 497.06 263.17 497.00 286.00 C 496.94 308.83 497.27 330.55 497.00 354.00 C 496.73 377.45 497.77 394.98 496.79 419.23 C 495.80 443.48 474.24 464.29 449.00 465.00
M 449.00 435.00 
C 449.56 422.15 447.82 407.85 450.00 396.00
C 446.47 392.54 443.04 392.18 438.00 392.00
C 432.38 399.43 435.55 410.33 435.00 422.00 C 434.45 433.67 435.28 446.90 435.00 459.00 C 434.72 471.10 435.21 484.76 435.00 497.00
C 419.00 497.00 403.00 497.00 387.00 497.00
C 386.87 480.52 387.17 464.53 387.00 448.00 C 386.83 431.47 387.33 415.70 387.00 399.00 C 386.67 382.30 387.72 367.12 387.00 350.00 C 386.29 332.88 393.77 333.35 409.00 333.00 C 424.23 332.65 435.95 332.12 435.00 348.00 C 434.05 363.88 431.13 377.31 446.00 377.00
C 452.80 370.13 447.19 352.23 449.00 342.00 C 450.81 331.77 444.76 327.98 437.75 321.81 C 430.73 315.65 416.52 318.60 405.00 318.00 C 393.48 317.40 386.95 317.73 380.25 325.25 C 373.54 332.77 372.48 336.17 373.00 349.00 C 373.52 361.83 372.73 378.45 373.00 392.00 C 373.27 405.55 372.80 421.25 373.00 435.00
C 365.67 435.00 358.33 435.00 351.00 435.00
C 352.53 417.85 352.16 396.77 338.23 391.42 C 324.30 386.08 302.28 387.38 287.70 391.71 C 273.11 396.05 273.44 417.55 275.00 435.00
C 267.33 435.00 259.67 435.00 252.00 435.00
C 249.82 416.76 255.11 389.80 251.61 374.25 C 248.10 358.69 231.43 359.00 215.00 359.00 C 198.57 359.00 181.95 357.50 177.42 373.77 C 172.90 390.04 177.87 416.04 176.00 435.00
C 154.69 433.86 124.41 436.52 104.00 435.00 C 83.59 433.48 57.76 441.09 48.81 426.75 C 39.85 412.41 46.47 388.81 45.00 367.00 C 43.53 345.19 45.61 316.78 45.00 294.00 C 44.39 271.22 45.15 243.70 45.00 221.00 C 44.85 198.30 44.79 170.63 45.00 149.00 C 45.21 127.37 42.40 113.03 60.25 106.81 C 78.11 100.59 102.84 104.93 125.00 104.00 C 147.16 103.07 174.89 104.40 198.00 104.00 C 221.11 103.60 247.76 104.12 271.00 104.00 C 294.24 103.88 320.25 103.92 343.00 104.00 C 365.75 104.08 394.66 103.67 416.00 104.00 C 437.34 104.33 455.22 100.89 463.71 116.30 C 472.20 131.71 465.30 155.97 467.00 178.00 C 468.70 200.03 466.16 228.09 467.00 251.00 C 467.84 273.91 466.47 300.03 467.00 323.00 C 467.53 345.97 466.43 373.76 467.00 396.00 C 467.57 418.24 468.58 431.14 449.00 435.00
M 238.00 497.00 
C 222.00 497.00 206.00 497.00 190.00 497.00
C 189.52 479.11 190.64 464.19 190.00 446.00 C 189.36 427.81 191.21 413.13 190.00 394.00 C 188.79 374.87 196.30 373.45 214.00 374.00 C 231.70 374.55 239.53 373.66 238.00 393.00 C 236.47 412.34 238.80 426.62 238.00 445.00 C 237.20 463.38 238.60 478.88 238.00 497.00
M 337.00 497.00 
C 321.00 497.00 305.00 497.00 289.00 497.00
C 288.93 483.35 289.09 469.65 289.00 456.00 C 288.91 442.35 289.17 428.63 289.00 415.00 C 288.83 401.37 303.19 403.65 314.00 404.00 C 324.81 404.35 336.26 401.22 336.97 414.03 C 337.69 426.84 336.66 441.67 337.00 455.00 C 337.34 468.33 336.74 483.50 337.00 497.00
M 275.00 449.00 
C 275.00 454.33 275.00 459.67 275.00 465.00
C 267.33 465.00 259.67 465.00 252.00 465.00
C 252.00 459.67 252.00 454.33 252.00 449.00
C 259.11 450.65 267.92 450.64 275.00 449.00
M 373.00 449.00 
C 373.00 454.33 373.00 459.67 373.00 465.00
C 365.67 465.00 358.33 465.00 351.00 465.00
C 351.00 459.67 351.00 454.33 351.00 449.00
C 357.77 450.65 366.25 450.64 373.00 449.00
M 275.00 479.00 
C 275.00 485.00 275.00 491.00 275.00 497.00
C 267.33 497.00 259.67 497.00 252.00 497.00
C 252.00 491.00 252.00 485.00 252.00 479.00
C 259.11 480.65 267.92 480.64 275.00 479.00
M 373.00 479.00 
C 373.00 485.00 373.00 491.00 373.00 497.00
C 365.67 497.00 358.33 497.00 351.00 497.00
C 351.00 491.00 351.00 485.00 351.00 479.00
C 357.77 480.65 366.25 480.64 373.00 479.00 Z"/>
</g>
<g fill="None" fill-opacity="0.0" stroke="#000000" stroke-opacity="0.03" stroke-width="0.3"><path d="
M 512.00 53.00 
L 512.00 0.00
L 455.00 0.00
C 483.75 2.72 506.47 26.99 512.00 53.00 Z"/>
</g>
<g fill="None" fill-opacity="0.0" stroke="#000000" stroke-opacity="0.01" stroke-width="0.3"><path d="
M 449.00 465.00 
C 474.24 464.29 495.80 443.48 496.79 419.23 C 497.77 394.98 496.73 377.45 497.00 354.00 C 497.27 330.55 496.94 308.83 497.00 286.00 C 497.06 263.17 497.11 240.31 497.00 218.00 C 496.89 195.69 497.36 172.64 497.00 151.00 C 496.64 129.36 497.83 103.44 497.00 83.00 C 496.17 62.56 499.39 50.24 490.59 38.75 C 481.78 27.27 474.86 19.04 460.75 16.39 C 446.64 13.75 421.84 15.33 402.00 15.00 C 382.16 14.67 355.39 15.19 334.00 15.00 C 312.61 14.81 289.25 15.16 267.00 15.00 C 244.75 14.84 221.91 15.24 199.00 15.00 C 176.09 14.76 154.73 15.48 131.00 15.00 C 107.27 14.52 89.45 16.04 64.02 15.02 C 38.60 14.00 14.60 37.31 15.33 62.33 C 16.06 87.35 14.45 105.39 15.00 129.00 C 15.55 152.61 14.71 174.09 15.00 197.00 C 15.29 219.91 14.79 242.62 15.00 265.00 C 15.21 287.38 14.72 310.27 15.00 332.00 C 15.28 353.73 14.47 379.39 15.00 400.00 C 15.53 420.61 13.77 429.46 21.87 441.08 C 29.97 452.70 35.86 458.51 49.77 462.23 C 63.68 465.95 89.92 465.10 109.00 465.00 C 128.08 464.90 156.11 465.07 176.00 465.00
C 176.00 459.67 176.00 454.33 176.00 449.00
C 157.56 450.29 130.10 450.72 112.00 450.00 C 93.90 449.28 68.18 452.44 54.75 448.59 C 41.32 444.74 36.38 439.52 31.80 426.25 C 27.22 412.98 30.90 388.70 30.00 370.00 C 29.10 351.30 30.40 325.77 30.00 306.00 C 29.60 286.23 30.18 261.79 30.00 242.00 C 29.82 222.21 30.08 196.78 30.00 178.00 C 29.92 159.22 29.19 133.53 31.94 119.08 C 34.69 104.64 40.95 100.46 53.23 93.58 C 65.51 86.69 83.55 90.76 103.00 90.00 C 122.45 89.24 146.58 90.33 167.00 90.00 C 187.42 89.67 210.20 90.13 231.00 90.00 C 251.80 89.87 274.19 90.01 295.00 90.00 C 315.81 89.99 338.52 89.89 359.00 90.00 C 379.48 90.11 403.43 89.71 423.00 90.00 C 442.57 90.29 454.53 87.38 465.75 97.81 C 476.96 108.24 481.32 110.32 482.00 128.00 C 482.68 145.68 481.73 172.46 482.00 192.00 C 482.27 211.54 481.96 235.79 482.00 256.00 C 482.04 276.21 482.16 299.87 482.00 320.00 C 481.84 340.13 482.47 364.75 482.00 384.00 C 481.53 403.25 484.39 420.07 478.13 432.08 C 471.87 444.09 460.83 448.80 449.00 449.00
C 449.00 454.33 449.00 459.67 449.00 465.00
M 53.00 27.00 
C 72.57 25.48 88.51 46.50 79.07 65.08 C 69.62 83.67 44.66 82.01 34.61 67.25 C 24.55 52.48 33.83 28.48 53.00 27.00
M 111.00 27.00 
C 130.72 23.94 145.73 47.60 136.87 64.92 C 128.01 82.24 104.55 83.24 93.61 68.25 C 82.66 53.26 90.34 30.21 111.00 27.00
M 169.00 27.00 
C 189.12 23.87 203.64 47.97 195.81 64.25 C 187.98 80.53 163.08 85.16 151.41 69.25 C 139.74 53.34 150.15 29.93 169.00 27.00 Z"/>
</g>
<g fill="None" fill-opacity="0.0" stroke="#000000" stroke-opacity="0.96" stroke-width="0.3"><path d="
M 53.00 27.00 
C 33.83 28.48 24.55 52.48 34.61 67.25 C 44.66 82.01 69.62 83.67 79.07 65.08 C 88.51 46.50 72.57 25.48 53.00 27.00
M 54.00 42.00 
C 68.95 39.21 70.81 64.39 55.92 64.92 C 41.03 65.45 43.35 43.99 54.00 42.00 Z"/>
</g>
<g fill="None" fill-opacity="0.0" stroke="#000000" stroke-opacity="0.96" stroke-width="0.3"><path d="
M 111.00 27.00 
C 90.34 30.21 82.66 53.26 93.61 68.25 C 104.55 83.24 128.01 82.24 136.87 64.92 C 145.73 47.60 130.72 23.94 111.00 27.00
M 103.00 57.00 
C 101.71 44.88 115.12 36.56 122.39 47.75 C 129.67 58.94 111.37 72.60 103.00 57.00 Z"/>
</g>
<g fill="None" fill-opacity="0.0" stroke="#000000" stroke-opacity="0.96" stroke-width="0.3"><path d="
M 169.00 27.00 
C 150.15 29.93 139.74 53.34 151.41 69.25 C 163.08 85.16 187.98 80.53 195.81 64.25 C 203.64 47.97 189.12 23.87 169.00 27.00
M 171.00 42.00 
C 183.25 40.98 187.90 61.79 173.75 63.80 C 159.61 65.82 156.96 43.16 171.00 42.00 Z"/>
</g>
<g fill="None" fill-opacity="0.0" stroke="#000000" stroke-opacity="0.06" stroke-width="0.3"><path d="
M 54.00 42.00 
C 43.35 43.99 41.03 65.45 55.92 64.92 C 70.81 64.39 68.95 39.21 54.00 42.00 Z"/>
</g>
<g fill="None" fill-opacity="0.0" stroke="#000000" stroke-opacity="0.05" stroke-width="0.3"><path d="
M 103.00 57.00 
C 111.37 72.60 129.67 58.94 122.39 47.75 C 115.12 36.56 101.71 44.88 103.00 57.00 Z"/>
</g>
<g fill="None" fill-opacity="0.0" stroke="#000000" stroke-opacity="0.05" stroke-width="0.3"><path d="
M 171.00 42.00 
C 156.96 43.16 159.61 65.82 173.75 63.80 C 187.90 61.79 183.25 40.98 171.00 42.00 Z"/>
</g>
<g fill="None" fill-opacity="0.0" stroke="#000000" stroke-opacity="0.02" stroke-width="0.3"><path d="
M 449.00 435.00 
C 468.58 431.14 467.57 418.24 467.00 396.00 C 466.43 373.76 467.53 345.97 467.00 323.00 C 466.47 300.03 467.84 273.91 467.00 251.00 C 466.16 228.09 468.70 200.03 467.00 178.00 C 465.30 155.97 472.20 131.71 463.71 116.30 C 455.22 100.89 437.34 104.33 416.00 104.00 C 394.66 103.67 365.75 104.08 343.00 104.00 C 320.25 103.92 294.24 103.88 271.00 104.00 C 247.76 104.12 221.11 103.60 198.00 104.00 C 174.89 104.40 147.16 103.07 125.00 104.00 C 102.84 104.93 78.11 100.59 60.25 106.81 C 42.40 113.03 45.21 127.37 45.00 149.00 C 44.79 170.63 44.85 198.30 45.00 221.00 C 45.15 243.70 44.39 271.22 45.00 294.00 C 45.61 316.78 43.53 345.19 45.00 367.00 C 46.47 388.81 39.85 412.41 48.81 426.75 C 57.76 441.09 83.59 433.48 104.00 435.00 C 124.41 436.52 154.69 433.86 176.00 435.00
C 177.87 416.04 172.90 390.04 177.42 373.77 C 181.95 357.50 198.57 359.00 215.00 359.00 C 231.43 359.00 248.10 358.69 251.61 374.25 C 255.11 389.80 249.82 416.76 252.00 435.00
C 259.67 435.00 267.33 435.00 275.00 435.00
C 273.44 417.55 273.11 396.05 287.70 391.71 C 302.28 387.38 324.30 386.08 338.23 391.42 C 352.16 396.77 352.53 417.85 351.00 435.00
C 358.33 435.00 365.67 435.00 373.00 435.00
C 372.80 421.25 373.27 405.55 373.00 392.00 C 372.73 378.45 373.52 361.83 373.00 349.00 C 372.48 336.17 373.54 332.77 380.25 325.25 C 386.95 317.73 393.48 317.40 405.00 318.00 C 416.52 318.60 430.73 315.65 437.75 321.81 C 444.76 327.98 450.81 331.77 449.00 342.00 C 447.19 352.23 452.80 370.13 446.00 377.00
C 431.13 377.31 434.05 363.88 435.00 348.00 C 435.95 332.12 424.23 332.65 409.00 333.00 C 393.77 333.35 386.29 332.88 387.00 350.00 C 387.72 367.12 386.67 382.30 387.00 399.00 C 387.33 415.70 386.83 431.47 387.00 448.00 C 387.17 464.53 386.87 480.52 387.00 497.00
C 403.00 497.00 419.00 497.00 435.00 497.00
C 435.21 484.76 434.72 471.10 435.00 459.00 C 435.28 446.90 434.45 433.67 435.00 422.00 C 435.55 410.33 432.38 399.43 438.00 392.00
C 443.04 392.18 446.47 392.54 450.00 396.00
C 447.82 407.85 449.56 422.15 449.00 435.00
M 125.00 130.00 
C 132.72 138.97 126.21 146.06 115.00 144.00 C 103.79 141.94 90.75 144.30 84.25 150.25 C 77.75 156.20 79.31 169.37 79.00 180.00
C 132.33 180.00 185.67 180.00 239.00 180.00
C 239.00 168.33 239.00 156.67 239.00 145.00
C 221.77 144.13 198.64 146.16 182.00 145.00 C 165.36 143.84 143.71 151.28 143.00 134.00
C 153.91 126.75 171.55 130.57 186.00 130.00 C 200.45 129.43 222.12 130.09 236.00 130.00 C 249.88 129.91 272.08 129.50 282.75 130.26 C 293.41 131.02 299.51 135.45 306.75 144.25 C 313.99 153.06 310.24 158.09 311.00 173.00 C 311.76 187.91 310.61 207.25 311.00 223.00 C 311.39 238.75 310.70 257.02 311.00 273.00
C 321.94 276.39 335.64 282.07 346.08 286.06 C 356.53 290.06 376.06 296.98 372.61 313.75 C 369.15 330.52 345.97 326.55 335.00 333.00
C 332.15 345.34 332.92 366.16 316.25 368.39 C 299.57 370.62 293.01 350.91 291.00 340.00
C 269.80 345.22 243.96 342.96 219.00 343.00 C 194.04 343.04 161.80 343.72 137.00 343.00 C 112.20 342.28 91.49 347.52 76.90 335.09 C 62.31 322.67 63.66 305.01 64.00 281.00 C 64.34 256.99 63.75 223.46 64.00 199.00 C 64.25 174.54 61.39 155.30 72.71 141.70 C 84.04 128.09 103.55 128.89 125.00 130.00
M 396.00 156.00 
C 404.60 154.75 419.71 164.65 410.00 175.00
C 403.59 175.68 400.80 172.57 396.00 171.00
C 395.91 179.79 396.32 188.49 387.92 189.06 C 379.52 189.63 380.32 180.14 381.00 171.00
C 373.33 173.99 374.68 180.10 374.00 187.00
C 384.07 195.75 393.19 196.32 404.25 201.19 C 415.32 206.06 422.80 223.01 419.65 234.70 C 416.50 246.39 407.12 256.88 395.00 258.00
C 399.58 269.45 387.85 277.94 380.00 269.00
C 380.91 265.92 381.90 262.01 380.00 259.00
C 369.35 259.51 364.53 254.75 356.00 249.00
C 356.22 232.29 370.45 240.81 380.00 245.00
C 384.46 235.25 375.29 218.20 386.25 216.81 C 397.21 215.42 397.66 233.22 395.00 243.00
C 413.25 233.38 402.36 215.06 390.08 211.87 C 377.80 208.68 363.57 202.88 359.41 188.25 C 355.25 173.61 367.72 157.30 381.00 155.00
C 381.06 151.61 380.89 148.74 380.00 146.00
C 388.19 137.47 397.83 144.89 396.00 156.00 Z"/>
</g>
<g fill="None" fill-opacity="0.0" stroke="#000000" stroke-opacity="0.97" stroke-width="0.3"><path d="
M 125.00 130.00 
C 103.55 128.89 84.04 128.09 72.71 141.70 C 61.39 155.30 64.25 174.54 64.00 199.00 C 63.75 223.46 64.34 256.99 64.00 281.00 C 63.66 305.01 62.31 322.67 76.90 335.09 C 91.49 347.52 112.20 342.28 137.00 343.00 C 161.80 343.72 194.04 343.04 219.00 343.00 C 243.96 342.96 269.80 345.22 291.00 340.00
C 293.01 350.91 299.57 370.62 316.25 368.39 C 332.92 366.16 332.15 345.34 335.00 333.00
C 345.97 326.55 369.15 330.52 372.61 313.75 C 376.06 296.98 356.53 290.06 346.08 286.06 C 335.64 282.07 321.94 276.39 311.00 273.00
C 310.70 257.02 311.39 238.75 311.00 223.00 C 310.61 207.25 311.76 187.91 311.00 173.00 C 310.24 158.09 313.99 153.06 306.75 144.25 C 299.51 135.45 293.41 131.02 282.75 130.26 C 272.08 129.50 249.88 129.91 236.00 130.00 C 222.12 130.09 200.45 129.43 186.00 130.00 C 171.55 130.57 153.91 126.75 143.00 134.00
C 143.71 151.28 165.36 143.84 182.00 145.00 C 198.64 146.16 221.77 144.13 239.00 145.00
C 239.00 156.67 239.00 168.33 239.00 180.00
C 185.67 180.00 132.33 180.00 79.00 180.00
C 79.31 169.37 77.75 156.20 84.25 150.25 C 90.75 144.30 103.79 141.94 115.00 144.00 C 126.21 146.06 132.72 138.97 125.00 130.00
M 297.00 180.00 
C 282.33 180.00 267.67 180.00 253.00 180.00
C 253.00 168.00 253.00 156.00 253.00 144.00
C 266.78 144.27 280.93 142.08 289.30 148.71 C 297.68 155.34 297.88 166.67 297.00 180.00
M 239.00 194.00 
C 239.00 205.67 239.00 217.33 239.00 229.00
C 186.26 227.33 131.72 227.33 79.00 229.00
C 79.00 217.33 79.00 205.67 79.00 194.00
C 132.33 194.00 185.67 194.00 239.00 194.00
M 297.00 194.00 
C 297.00 205.67 297.00 217.33 297.00 229.00
C 282.33 229.00 267.67 229.00 253.00 229.00
C 253.00 217.33 253.00 205.67 253.00 194.00
C 267.67 194.00 282.33 194.00 297.00 194.00
M 239.00 243.00 
C 239.00 254.67 239.00 266.33 239.00 278.00
C 186.26 276.33 131.72 276.33 79.00 278.00
C 79.00 266.33 79.00 254.67 79.00 243.00
C 132.33 243.00 185.67 243.00 239.00 243.00
M 297.00 243.00 
C 297.00 250.67 297.00 258.33 297.00 266.00
C 285.66 258.85 266.14 262.50 267.00 278.00
C 262.33 278.00 257.67 278.00 253.00 278.00
C 254.66 266.91 254.66 254.06 253.00 243.00
C 267.67 243.00 282.33 243.00 297.00 243.00
M 358.00 311.00 
C 347.03 316.13 334.03 313.57 325.77 321.77 C 317.51 329.97 320.37 342.44 315.00 354.00
C 312.61 353.67 312.38 352.74 310.00 352.00
C 307.93 338.69 299.31 327.62 295.09 314.90 C 290.88 302.18 283.80 290.53 282.00 277.00
C 291.35 279.52 299.92 283.76 308.30 287.71 C 316.68 291.65 325.71 293.13 333.75 297.39 C 341.80 301.66 352.43 303.03 358.00 311.00
M 239.00 292.00 
C 239.00 304.00 239.00 316.00 239.00 328.00
C 217.32 326.31 191.83 326.81 170.00 327.00 C 148.17 327.19 119.62 326.28 99.00 327.00 C 78.38 327.72 79.58 311.10 79.00 292.00
C 132.33 292.00 185.67 292.00 239.00 292.00
M 271.00 292.00 
C 274.09 304.41 279.07 314.15 285.00 327.00
C 275.35 328.86 263.65 327.65 253.00 328.00
C 253.00 316.00 253.00 304.00 253.00 292.00
C 259.00 292.00 265.00 292.00 271.00 292.00 Z"/>
</g>
<g fill="None" fill-opacity="0.0" stroke="#000000" stroke-opacity="0.96" stroke-width="0.3"><path d="
M 396.00 156.00 
C 397.83 144.89 388.19 137.47 380.00 146.00
C 380.89 148.74 381.06 151.61 381.00 155.00
C 367.72 157.30 355.25 173.61 359.41 188.25 C 363.57 202.88 377.80 208.68 390.08 211.87 C 402.36 215.06 413.25 233.38 395.00 243.00
C 397.66 233.22 397.21 215.42 386.25 216.81 C 375.29 218.20 384.46 235.25 380.00 245.00
C 370.45 240.81 356.22 232.29 356.00 249.00
C 364.53 254.75 369.35 259.51 380.00 259.00
C 381.90 262.01 380.91 265.92 380.00 269.00
C 387.85 277.94 399.58 269.45 395.00 258.00
C 407.12 256.88 416.50 246.39 419.65 234.70 C 422.80 223.01 415.32 206.06 404.25 201.19 C 393.19 196.32 384.07 195.75 374.00 187.00
C 374.68 180.10 373.33 173.99 381.00 171.00
C 380.32 180.14 379.52 189.63 387.92 189.06 C 396.32 188.49 395.91 179.79 396.00 171.00
C 400.80 172.57 403.59 175.68 410.00 175.00
C 419.71 164.65 404.60 154.75 396.00 156.00 Z"/>
</g>
<g fill="None" fill-opacity="0.0" stroke="#000000" stroke-opacity="0.04" stroke-width="0.3"><path d="
M 297.00 180.00 
C 297.88 166.67 297.68 155.34 289.30 148.71 C 280.93 142.08 266.78 144.27 253.00 144.00
C 253.00 156.00 253.00 168.00 253.00 180.00
C 267.67 180.00 282.33 180.00 297.00 180.00 Z"/>
</g>
<g fill="None" fill-opacity="0.0" stroke="#000000" stroke-opacity="0.03" stroke-width="0.3"><path d="
M 239.00 194.00 
C 185.67 194.00 132.33 194.00 79.00 194.00
C 79.00 205.67 79.00 217.33 79.00 229.00
C 131.72 227.33 186.26 227.33 239.00 229.00
C 239.00 217.33 239.00 205.67 239.00 194.00 Z"/>
</g>
<g fill="None" fill-opacity="0.0" stroke="#000000" stroke-opacity="0.04" stroke-width="0.3"><path d="
M 297.00 194.00 
C 282.33 194.00 267.67 194.00 253.00 194.00
C 253.00 205.67 253.00 217.33 253.00 229.00
C 267.67 229.00 282.33 229.00 297.00 229.00
C 297.00 217.33 297.00 205.67 297.00 194.00 Z"/>
</g>
<g fill="None" fill-opacity="0.0" stroke="#000000" stroke-opacity="0.03" stroke-width="0.3"><path d="
M 239.00 243.00 
C 185.67 243.00 132.33 243.00 79.00 243.00
C 79.00 254.67 79.00 266.33 79.00 278.00
C 131.72 276.33 186.26 276.33 239.00 278.00
C 239.00 266.33 239.00 254.67 239.00 243.00 Z"/>
</g>
<g fill="None" fill-opacity="0.0" stroke="#000000" stroke-opacity="0.05" stroke-width="0.3"><path d="
M 297.00 243.00 
C 282.33 243.00 267.67 243.00 253.00 243.00
C 254.66 254.06 254.66 266.91 253.00 278.00
C 257.67 278.00 262.33 278.00 267.00 278.00
C 266.14 262.50 285.66 258.85 297.00 266.00
C 297.00 258.33 297.00 250.67 297.00 243.00 Z"/>
</g>
<g fill="None" fill-opacity="0.0" stroke="#000000" stroke-opacity="0.04" stroke-width="0.3"><path d="
M 358.00 311.00 
C 352.43 303.03 341.80 301.66 333.75 297.39 C 325.71 293.13 316.68 291.65 308.30 287.71 C 299.92 283.76 291.35 279.52 282.00 277.00
C 283.80 290.53 290.88 302.18 295.09 314.90 C 299.31 327.62 307.93 338.69 310.00 352.00
C 312.38 352.74 312.61 353.67 315.00 354.00
C 320.37 342.44 317.51 329.97 325.77 321.77 C 334.03 313.57 347.03 316.13 358.00 311.00 Z"/>
</g>
<g fill="None" fill-opacity="0.0" stroke="#000000" stroke-opacity="0.03" stroke-width="0.3"><path d="
M 239.00 292.00 
C 185.67 292.00 132.33 292.00 79.00 292.00
C 79.58 311.10 78.38 327.72 99.00 327.00 C 119.62 326.28 148.17 327.19 170.00 327.00 C 191.83 326.81 217.32 326.31 239.00 328.00
C 239.00 316.00 239.00 304.00 239.00 292.00 Z"/>
</g>
<g fill="None" fill-opacity="0.0" stroke="#000000" stroke-opacity="0.05" stroke-width="0.3"><path d="
M 271.00 292.00 
C 265.00 292.00 259.00 292.00 253.00 292.00
C 253.00 304.00 253.00 316.00 253.00 328.00
C 263.65 327.65 275.35 328.86 285.00 327.00
C 279.07 314.15 274.09 304.41 271.00 292.00 Z"/>
</g>
<g fill="None" fill-opacity="0.0" stroke="#000000" stroke-opacity="0.02" stroke-width="0.3"><path d="
M 238.00 497.00 
C 238.60 478.88 237.20 463.38 238.00 445.00 C 238.80 426.62 236.47 412.34 238.00 393.00 C 239.53 373.66 231.70 374.55 214.00 374.00 C 196.30 373.45 188.79 374.87 190.00 394.00 C 191.21 413.13 189.36 427.81 190.00 446.00 C 190.64 464.19 189.52 479.11 190.00 497.00
C 206.00 497.00 222.00 497.00 238.00 497.00 Z"/>
</g>
<g fill="None" fill-opacity="0.0" stroke="#000000" stroke-opacity="0.02" stroke-width="0.3"><path d="
M 337.00 497.00 
C 336.74 483.50 337.34 468.33 337.00 455.00 C 336.66 441.67 337.69 426.84 336.97 414.03 C 336.26 401.22 324.81 404.35 314.00 404.00 C 303.19 403.65 288.83 401.37 289.00 415.00 C 289.17 428.63 288.91 442.35 289.00 456.00 C 289.09 469.65 288.93 483.35 289.00 497.00
C 305.00 497.00 321.00 497.00 337.00 497.00 Z"/>
</g>
<g fill="None" fill-opacity="0.0" stroke="#000000" stroke-opacity="0.02" stroke-width="0.3"><path d="
M 0.00 512.00 
L 163.00 512.00
C 162.33 510.66 160.17 509.75 159.00 511.00
C 155.60 506.74 157.36 504.04 157.00 500.00
C 161.96 496.25 168.54 497.15 176.00 497.00
C 176.00 491.00 176.00 485.00 176.00 479.00
C 147.00 479.17 110.22 478.78 82.00 479.00 C 53.78 479.22 43.14 479.67 26.77 468.24 C 10.40 456.80 3.29 440.36 0.00 423.00
L 0.00 512.00 Z"/>
</g>
<g fill="None" fill-opacity="0.0" stroke="#000000" stroke-opacity="0.02" stroke-width="0.3"><path d="
M 476.00 512.00 
L 512.00 512.00
L 512.00 423.00
C 508.15 453.18 481.12 480.62 449.00 479.00
C 449.00 485.00 449.00 491.00 449.00 497.00
C 463.21 497.33 487.68 492.78 481.00 510.00
C 479.61 511.41 476.97 510.36 476.00 512.00 Z"/>
</g>
<g fill="None" fill-opacity="0.0" stroke="#000000" stroke-opacity="0.10" stroke-width="0.3"><path d="
M 275.00 449.00 
C 267.92 450.64 259.11 450.65 252.00 449.00
C 252.00 454.33 252.00 459.67 252.00 465.00
C 259.67 465.00 267.33 465.00 275.00 465.00
C 275.00 459.67 275.00 454.33 275.00 449.00 Z"/>
</g>
<g fill="None" fill-opacity="0.0" stroke="#000000" stroke-opacity="0.05" stroke-width="0.3"><path d="
M 373.00 449.00 
C 366.25 450.64 357.77 450.65 351.00 449.00
C 351.00 454.33 351.00 459.67 351.00 465.00
C 358.33 465.00 365.67 465.00 373.00 465.00
C 373.00 459.67 373.00 454.33 373.00 449.00 Z"/>
</g>
<g fill="None" fill-opacity="0.0" stroke="#000000" stroke-opacity="0.06" stroke-width="0.3"><path d="
M 275.00 479.00 
C 267.92 480.64 259.11 480.65 252.00 479.00
C 252.00 485.00 252.00 491.00 252.00 497.00
C 259.67 497.00 267.33 497.00 275.00 497.00
C 275.00 491.00 275.00 485.00 275.00 479.00 Z"/>
</g>
<g fill="None" fill-opacity="0.0" stroke="#000000" stroke-opacity="0.02" stroke-width="0.3"><path d="
M 373.00 479.00 
C 366.25 480.64 357.77 480.65 351.00 479.00
C 351.00 485.00 351.00 491.00 351.00 497.00
C 358.33 497.00 365.67 497.00 373.00 497.00
C 373.00 491.00 373.00 485.00 373.00 479.00 Z"/>
</g>
<g fill="#000000" fill-opacity="0.04" stroke="None">
<path d="
M 0.00 60.00 
C 2.38 26.86 28.02 1.34 62.00 0.00
L 0.00 0.00
L 0.00 60.00 Z"/>
</g>
<g fill="#000000" fill-opacity="0.99" stroke="None">
<path d="
M 0.00 60.00 
L 0.00 423.00
C 3.29 440.36 10.40 456.80 26.77 468.24 C 43.14 479.67 53.78 479.22 82.00 479.00 C 110.22 478.78 147.00 479.17 176.00 479.00
C 176.00 485.00 176.00 491.00 176.00 497.00
C 168.54 497.15 161.96 496.25 157.00 500.00
C 157.36 504.04 155.60 506.74 159.00 511.00
C 160.17 509.75 162.33 510.66 163.00 512.00
L 476.00 512.00
C 476.97 510.36 479.61 511.41 481.00 510.00
C 487.68 492.78 463.21 497.33 449.00 497.00
C 449.00 491.00 449.00 485.00 449.00 479.00
C 481.12 480.62 508.15 453.18 512.00 423.00
L 512.00 53.00
C 506.47 26.99 483.75 2.72 455.00 0.00
L 62.00 0.00
C 28.02 1.34 2.38 26.86 0.00 60.00
M 449.00 465.00 
C 449.00 459.67 449.00 454.33 449.00 449.00
C 460.83 448.80 471.87 444.09 478.13 432.08 C 484.39 420.07 481.53 403.25 482.00 384.00 C 482.47 364.75 481.84 340.13 482.00 320.00 C 482.16 299.87 482.04 276.21 482.00 256.00 C 481.96 235.79 482.27 211.54 482.00 192.00 C 481.73 172.46 482.68 145.68 482.00 128.00 C 481.32 110.32 476.96 108.24 465.75 97.81 C 454.53 87.38 442.57 90.29 423.00 90.00 C 403.43 89.71 379.48 90.11 359.00 90.00 C 338.52 89.89 315.81 89.99 295.00 90.00 C 274.19 90.01 251.80 89.87 231.00 90.00 C 210.20 90.13 187.42 89.67 167.00 90.00 C 146.58 90.33 122.45 89.24 103.00 90.00 C 83.55 90.76 65.51 86.69 53.23 93.58 C 40.95 100.46 34.69 104.64 31.94 119.08 C 29.19 133.53 29.92 159.22 30.00 178.00 C 30.08 196.78 29.82 222.21 30.00 242.00 C 30.18 261.79 29.60 286.23 30.00 306.00 C 30.40 325.77 29.10 351.30 30.00 370.00 C 30.90 388.70 27.22 412.98 31.80 426.25 C 36.38 439.52 41.32 444.74 54.75 448.59 C 68.18 452.44 93.90 449.28 112.00 450.00 C 130.10 450.72 157.56 450.29 176.00 449.00
C 176.00 454.33 176.00 459.67 176.00 465.00
C 156.11 465.07 128.08 464.90 109.00 465.00 C 89.92 465.10 63.68 465.95 49.77 462.23 C 35.86 458.51 29.97 452.70 21.87 441.08 C 13.77 429.46 15.53 420.61 15.00 400.00 C 14.47 379.39 15.28 353.73 15.00 332.00 C 14.72 310.27 15.21 287.38 15.00 265.00 C 14.79 242.62 15.29 219.91 15.00 197.00 C 14.71 174.09 15.55 152.61 15.00 129.00 C 14.45 105.39 16.06 87.35 15.33 62.33 C 14.60 37.31 38.60 14.00 64.02 15.02 C 89.45 16.04 107.27 14.52 131.00 15.00 C 154.73 15.48 176.09 14.76 199.00 15.00 C 221.91 15.24 244.75 14.84 267.00 15.00 C 289.25 15.16 312.61 14.81 334.00 15.00 C 355.39 15.19 382.16 14.67 402.00 15.00 C 421.84 15.33 446.64 13.75 460.75 16.39 C 474.86 19.04 481.78 27.27 490.59 38.75 C 499.39 50.24 496.17 62.56 497.00 83.00 C 497.83 103.44 496.64 129.36 497.00 151.00 C 497.36 172.64 496.89 195.69 497.00 218.00 C 497.11 240.31 497.06 263.17 497.00 286.00 C 496.94 308.83 497.27 330.55 497.00 354.00 C 496.73 377.45 497.77 394.98 496.79 419.23 C 495.80 443.48 474.24 464.29 449.00 465.00
M 449.00 435.00 
C 449.56 422.15 447.82 407.85 450.00 396.00
C 446.47 392.54 443.04 392.18 438.00 392.00
C 432.38 399.43 435.55 410.33 435.00 422.00 C 434.45 433.67 435.28 446.90 435.00 459.00 C 434.72 471.10 435.21 484.76 435.00 497.00
C 419.00 497.00 403.00 497.00 387.00 497.00
C 386.87 480.52 387.17 464.53 387.00 448.00 C 386.83 431.47 387.33 415.70 387.00 399.00 C 386.67 382.30 387.72 367.12 387.00 350.00 C 386.29 332.88 393.77 333.35 409.00 333.00 C 424.23 332.65 435.95 332.12 435.00 348.00 C 434.05 363.88 431.13 377.31 446.00 377.00
C 452.80 370.13 447.19 352.23 449.00 342.00 C 450.81 331.77 444.76 327.98 437.75 321.81 C 430.73 315.65 416.52 318.60 405.00 318.00 C 393.48 317.40 386.95 317.73 380.25 325.25 C 373.54 332.77 372.48 336.17 373.00 349.00 C 373.52 361.83 372.73 378.45 373.00 392.00 C 373.27 405.55 372.80 421.25 373.00 435.00
C 365.67 435.00 358.33 435.00 351.00 435.00
C 352.53 417.85 352.16 396.77 338.23 391.42 C 324.30 386.08 302.28 387.38 287.70 391.71 C 273.11 396.05 273.44 417.55 275.00 435.00
C 267.33 435.00 259.67 435.00 252.00 435.00
C 249.82 416.76 255.11 389.80 251.61 374.25 C 248.10 358.69 231.43 359.00 215.00 359.00 C 198.57 359.00 181.95 357.50 177.42 373.77 C 172.90 390.04 177.87 416.04 176.00 435.00
C 154.69 433.86 124.41 436.52 104.00 435.00 C 83.59 433.48 57.76 441.09 48.81 426.75 C 39.85 412.41 46.47 388.81 45.00 367.00 C 43.53 345.19 45.61 316.78 45.00 294.00 C 44.39 271.22 45.15 243.70 45.00 221.00 C 44.85 198.30 44.79 170.63 45.00 149.00 C 45.21 127.37 42.40 113.03 60.25 106.81 C 78.11 100.59 102.84 104.93 125.00 104.00 C 147.16 103.07 174.89 104.40 198.00 104.00 C 221.11 103.60 247.76 104.12 271.00 104.00 C 294.24 103.88 320.25 103.92 343.00 104.00 C 365.75 104.08 394.66 103.67 416.00 104.00 C 437.34 104.33 455.22 100.89 463.71 116.30 C 472.20 131.71 465.30 155.97 467.00 178.00 C 468.70 200.03 466.16 228.09 467.00 251.00 C 467.84 273.91 466.47 300.03 467.00 323.00 C 467.53 345.97 466.43 373.76 467.00 396.00 C 467.57 418.24 468.58 431.14 449.00 435.00
M 238.00 497.00 
C 222.00 497.00 206.00 497.00 190.00 497.00
C 189.52 479.11 190.64 464.19 190.00 446.00 C 189.36 427.81 191.21 413.13 190.00 394.00 C 188.79 374.87 196.30 373.45 214.00 374.00 C 231.70 374.55 239.53 373.66 238.00 393.00 C 236.47 412.34 238.80 426.62 238.00 445.00 C 237.20 463.38 238.60 478.88 238.00 497.00
M 337.00 497.00 
C 321.00 497.00 305.00 497.00 289.00 497.00
C 288.93 483.35 289.09 469.65 289.00 456.00 C 288.91 442.35 289.17 428.63 289.00 415.00 C 288.83 401.37 303.19 403.65 314.00 404.00 C 324.81 404.35 336.26 401.22 336.97 414.03 C 337.69 426.84 336.66 441.67 337.00 455.00 C 337.34 468.33 336.74 483.50 337.00 497.00
M 275.00 449.00 
C 275.00 454.33 275.00 459.67 275.00 465.00
C 267.33 465.00 259.67 465.00 252.00 465.00
C 252.00 459.67 252.00 454.33 252.00 449.00
C 259.11 450.65 267.92 450.64 275.00 449.00
M 373.00 449.00 
C 373.00 454.33 373.00 459.67 373.00 465.00
C 365.67 465.00 358.33 465.00 351.00 465.00
C 351.00 459.67 351.00 454.33 351.00 449.00
C 357.77 450.65 366.25 450.64 373.00 449.00
M 275.00 479.00 
C 275.00 485.00 275.00 491.00 275.00 497.00
C 267.33 497.00 259.67 497.00 252.00 497.00
C 252.00 491.00 252.00 485.00 252.00 479.00
C 259.11 480.65 267.92 480.64 275.00 479.00
M 373.00 479.00 
C 373.00 485.00 373.00 491.00 373.00 497.00
C 365.67 497.00 358.33 497.00 351.00 497.00
C 351.00 491.00 351.00 485.00 351.00 479.00
C 357.77 480.65 366.25 480.64 373.00 479.00 Z"/>
</g>
<g fill="#000000" fill-opacity="0.03" stroke="None">
<path d="
M 512.00 53.00 
L 512.00 0.00
L 455.00 0.00
C 483.75 2.72 506.47 26.99 512.00 53.00 Z"/>
</g>
<g fill="#000000" fill-opacity="0.01" stroke="None">
<path d="
M 449.00 465.00 
C 474.24 464.29 495.80 443.48 496.79 419.23 C 497.77 394.98 496.73 377.45 497.00 354.00 C 497.27 330.55 496.94 308.83 497.00 286.00 C 497.06 263.17 497.11 240.31 497.00 218.00 C 496.89 195.69 497.36 172.64 497.00 151.00 C 496.64 129.36 497.83 103.44 497.00 83.00 C 496.17 62.56 499.39 50.24 490.59 38.75 C 481.78 27.27 474.86 19.04 460.75 16.39 C 446.64 13.75 421.84 15.33 402.00 15.00 C 382.16 14.67 355.39 15.19 334.00 15.00 C 312.61 14.81 289.25 15.16 267.00 15.00 C 244.75 14.84 221.91 15.24 199.00 15.00 C 176.09 14.76 154.73 15.48 131.00 15.00 C 107.27 14.52 89.45 16.04 64.02 15.02 C 38.60 14.00 14.60 37.31 15.33 62.33 C 16.06 87.35 14.45 105.39 15.00 129.00 C 15.55 152.61 14.71 174.09 15.00 197.00 C 15.29 219.91 14.79 242.62 15.00 265.00 C 15.21 287.38 14.72 310.27 15.00 332.00 C 15.28 353.73 14.47 379.39 15.00 400.00 C 15.53 420.61 13.77 429.46 21.87 441.08 C 29.97 452.70 35.86 458.51 49.77 462.23 C 63.68 465.95 89.92 465.10 109.00 465.00 C 128.08 464.90 156.11 465.07 176.00 465.00
C 176.00 459.67 176.00 454.33 176.00 449.00
C 157.56 450.29 130.10 450.72 112.00 450.00 C 93.90 449.28 68.18 452.44 54.75 448.59 C 41.32 444.74 36.38 439.52 31.80 426.25 C 27.22 412.98 30.90 388.70 30.00 370.00 C 29.10 351.30 30.40 325.77 30.00 306.00 C 29.60 286.23 30.18 261.79 30.00 242.00 C 29.82 222.21 30.08 196.78 30.00 178.00 C 29.92 159.22 29.19 133.53 31.94 119.08 C 34.69 104.64 40.95 100.46 53.23 93.58 C 65.51 86.69 83.55 90.76 103.00 90.00 C 122.45 89.24 146.58 90.33 167.00 90.00 C 187.42 89.67 210.20 90.13 231.00 90.00 C 251.80 89.87 274.19 90.01 295.00 90.00 C 315.81 89.99 338.52 89.89 359.00 90.00 C 379.48 90.11 403.43 89.71 423.00 90.00 C 442.57 90.29 454.53 87.38 465.75 97.81 C 476.96 108.24 481.32 110.32 482.00 128.00 C 482.68 145.68 481.73 172.46 482.00 192.00 C 482.27 211.54 481.96 235.79 482.00 256.00 C 482.04 276.21 482.16 299.87 482.00 320.00 C 481.84 340.13 482.47 364.75 482.00 384.00 C 481.53 403.25 484.39 420.07 478.13 432.08 C 471.87 444.09 460.83 448.80 449.00 449.00
C 449.00 454.33 449.00 459.67 449.00 465.00
M 53.00 27.00 
C 72.57 25.48 88.51 46.50 79.07 65.08 C 69.62 83.67 44.66 82.01 34.61 67.25 C 24.55 52.48 33.83 28.48 53.00 27.00
M 111.00 27.00 
C 130.72 23.94 145.73 47.60 136.87 64.92 C 128.01 82.24 104.55 83.24 93.61 68.25 C 82.66 53.26 90.34 30.21 111.00 27.00
M 169.00 27.00 
C 189.12 23.87 203.64 47.97 195.81 64.25 C 187.98 80.53 163.08 85.16 151.41 69.25 C 139.74 53.34 150.15 29.93 169.00 27.00 Z"/>
</g>
<g fill="#000000" fill-opacity="0.96" stroke="None">
<path d="
M 53.00 27.00 
C 33.83 28.48 24.55 52.48 34.61 67.25 C 44.66 82.01 69.62 83.67 79.07 65.08 C 88.51 46.50 72.57 25.48 53.00 27.00
M 54.00 42.00 
C 68.95 39.21 70.81 64.39 55.92 64.92 C 41.03 65.45 43.35 43.99 54.00 42.00 Z"/>
</g>
<g fill="#000000" fill-opacity="0.96" stroke="None">
<path d="
M 111.00 27.00 
C 90.34 30.21 82.66 53.26 93.61 68.25 C 104.55 83.24 128.01 82.24 136.87 64.92 C 145.73 47.60 130.72 23.94 111.00 27.00
M 103.00 57.00 
C 101.71 44.88 115.12 36.56 122.39 47.75 C 129.67 58.94 111.37 72.60 103.00 57.00 Z"/>
</g>
<g fill="#000000" fill-opacity="0.96" stroke="None">
<path d="
M 169.00 27.00 
C 150.15 29.93 139.74 53.34 151.41 69.25 C 163.08 85.16 187.98 80.53 195.81 64.25 C 203.64 47.97 189.12 23.87 169.00 27.00
M 171.00 42.00 
C 183.25 40.98 187.90 61.79 173.75 63.80 C 159.61 65.82 156.96 43.16 171.00 42.00 Z"/>
</g>
<g fill="#000000" fill-opacity="0.06" stroke="None">
<path d="
M 54.00 42.00 
C 43.35 43.99 41.03 65.45 55.92 64.92 C 70.81 64.39 68.95 39.21 54.00 42.00 Z"/>
</g>
<g fill="#000000" fill-opacity="0.05" stroke="None">
<path d="
M 103.00 57.00 
C 111.37 72.60 129.67 58.94 122.39 47.75 C 115.12 36.56 101.71 44.88 103.00 57.00 Z"/>
</g>
<g fill="#000000" fill-opacity="0.05" stroke="None">
<path d="
M 171.00 42.00 
C 156.96 43.16 159.61 65.82 173.75 63.80 C 187.90 61.79 183.25 40.98 171.00 42.00 Z"/>
</g>
<g fill="#000000" fill-opacity="0.02" stroke="None">
<path d="
M 449.00 435.00 
C 468.58 431.14 467.57 418.24 467.00 396.00 C 466.43 373.76 467.53 345.97 467.00 323.00 C 466.47 300.03 467.84 273.91 467.00 251.00 C 466.16 228.09 468.70 200.03 467.00 178.00 C 465.30 155.97 472.20 131.71 463.71 116.30 C 455.22 100.89 437.34 104.33 416.00 104.00 C 394.66 103.67 365.75 104.08 343.00 104.00 C 320.25 103.92 294.24 103.88 271.00 104.00 C 247.76 104.12 221.11 103.60 198.00 104.00 C 174.89 104.40 147.16 103.07 125.00 104.00 C 102.84 104.93 78.11 100.59 60.25 106.81 C 42.40 113.03 45.21 127.37 45.00 149.00 C 44.79 170.63 44.85 198.30 45.00 221.00 C 45.15 243.70 44.39 271.22 45.00 294.00 C 45.61 316.78 43.53 345.19 45.00 367.00 C 46.47 388.81 39.85 412.41 48.81 426.75 C 57.76 441.09 83.59 433.48 104.00 435.00 C 124.41 436.52 154.69 433.86 176.00 435.00
C 177.87 416.04 172.90 390.04 177.42 373.77 C 181.95 357.50 198.57 359.00 215.00 359.00 C 231.43 359.00 248.10 358.69 251.61 374.25 C 255.11 389.80 249.82 416.76 252.00 435.00
C 259.67 435.00 267.33 435.00 275.00 435.00
C 273.44 417.55 273.11 396.05 287.70 391.71 C 302.28 387.38 324.30 386.08 338.23 391.42 C 352.16 396.77 352.53 417.85 351.00 435.00
C 358.33 435.00 365.67 435.00 373.00 435.00
C 372.80 421.25 373.27 405.55 373.00 392.00 C 372.73 378.45 373.52 361.83 373.00 349.00 C 372.48 336.17 373.54 332.77 380.25 325.25 C 386.95 317.73 393.48 317.40 405.00 318.00 C 416.52 318.60 430.73 315.65 437.75 321.81 C 444.76 327.98 450.81 331.77 449.00 342.00 C 447.19 352.23 452.80 370.13 446.00 377.00
C 431.13 377.31 434.05 363.88 435.00 348.00 C 435.95 332.12 424.23 332.65 409.00 333.00 C 393.77 333.35 386.29 332.88 387.00 350.00 C 387.72 367.12 386.67 382.30 387.00 399.00 C 387.33 415.70 386.83 431.47 387.00 448.00 C 387.17 464.53 386.87 480.52 387.00 497.00
C 403.00 497.00 419.00 497.00 435.00 497.00
C 435.21 484.76 434.72 471.10 435.00 459.00 C 435.28 446.90 434.45 433.67 435.00 422.00 C 435.55 410.33 432.38 399.43 438.00 392.00
C 443.04 392.18 446.47 392.54 450.00 396.00
C 447.82 407.85 449.56 422.15 449.00 435.00
M 125.00 130.00 
C 132.72 138.97 126.21 146.06 115.00 144.00 C 103.79 141.94 90.75 144.30 84.25 150.25 C 77.75 156.20 79.31 169.37 79.00 180.00
C 132.33 180.00 185.67 180.00 239.00 180.00
C 239.00 168.33 239.00 156.67 239.00 145.00
C 221.77 144.13 198.64 146.16 182.00 145.00 C 165.36 143.84 143.71 151.28 143.00 134.00
C 153.91 126.75 171.55 130.57 186.00 130.00 C 200.45 129.43 222.12 130.09 236.00 130.00 C 249.88 129.91 272.08 129.50 282.75 130.26 C 293.41 131.02 299.51 135.45 306.75 144.25 C 313.99 153.06 310.24 158.09 311.00 173.00 C 311.76 187.91 310.61 207.25 311.00 223.00 C 311.39 238.75 310.70 257.02 311.00 273.00
C 321.94 276.39 335.64 282.07 346.08 286.06 C 356.53 290.06 376.06 296.98 372.61 313.75 C 369.15 330.52 345.97 326.55 335.00 333.00
C 332.15 345.34 332.92 366.16 316.25 368.39 C 299.57 370.62 293.01 350.91 291.00 340.00
C 269.80 345.22 243.96 342.96 219.00 343.00 C 194.04 343.04 161.80 343.72 137.00 343.00 C 112.20 342.28 91.49 347.52 76.90 335.09 C 62.31 322.67 63.66 305.01 64.00 281.00 C 64.34 256.99 63.75 223.46 64.00 199.00 C 64.25 174.54 61.39 155.30 72.71 141.70 C 84.04 128.09 103.55 128.89 125.00 130.00
M 396.00 156.00 
C 404.60 154.75 419.71 164.65 410.00 175.00
C 403.59 175.68 400.80 172.57 396.00 171.00
C 395.91 179.79 396.32 188.49 387.92 189.06 C 379.52 189.63 380.32 180.14 381.00 171.00
C 373.33 173.99 374.68 180.10 374.00 187.00
C 384.07 195.75 393.19 196.32 404.25 201.19 C 415.32 206.06 422.80 223.01 419.65 234.70 C 416.50 246.39 407.12 256.88 395.00 258.00
C 399.58 269.45 387.85 277.94 380.00 269.00
C 380.91 265.92 381.90 262.01 380.00 259.00
C 369.35 259.51 364.53 254.75 356.00 249.00
C 356.22 232.29 370.45 240.81 380.00 245.00
C 384.46 235.25 375.29 218.20 386.25 216.81 C 397.21 215.42 397.66 233.22 395.00 243.00
C 413.25 233.38 402.36 215.06 390.08 211.87 C 377.80 208.68 363.57 202.88 359.41 188.25 C 355.25 173.61 367.72 157.30 381.00 155.00
C 381.06 151.61 380.89 148.74 380.00 146.00
C 388.19 137.47 397.83 144.89 396.00 156.00 Z"/>
</g>
<g fill="#000000" fill-opacity="0.97" stroke="None">
<path d="
M 125.00 130.00 
C 103.55 128.89 84.04 128.09 72.71 141.70 C 61.39 155.30 64.25 174.54 64.00 199.00 C 63.75 223.46 64.34 256.99 64.00 281.00 C 63.66 305.01 62.31 322.67 76.90 335.09 C 91.49 347.52 112.20 342.28 137.00 343.00 C 161.80 343.72 194.04 343.04 219.00 343.00 C 243.96 342.96 269.80 345.22 291.00 340.00
C 293.01 350.91 299.57 370.62 316.25 368.39 C 332.92 366.16 332.15 345.34 335.00 333.00
C 345.97 326.55 369.15 330.52 372.61 313.75 C 376.06 296.98 356.53 290.06 346.08 286.06 C 335.64 282.07 321.94 276.39 311.00 273.00
C 310.70 257.02 311.39 238.75 311.00 223.00 C 310.61 207.25 311.76 187.91 311.00 173.00 C 310.24 158.09 313.99 153.06 306.75 144.25 C 299.51 135.45 293.41 131.02 282.75 130.26 C 272.08 129.50 249.88 129.91 236.00 130.00 C 222.12 130.09 200.45 129.43 186.00 130.00 C 171.55 130.57 153.91 126.75 143.00 134.00
C 143.71 151.28 165.36 143.84 182.00 145.00 C 198.64 146.16 221.77 144.13 239.00 145.00
C 239.00 156.67 239.00 168.33 239.00 180.00
C 185.67 180.00 132.33 180.00 79.00 180.00
C 79.31 169.37 77.75 156.20 84.25 150.25 C 90.75 144.30 103.79 141.94 115.00 144.00 C 126.21 146.06 132.72 138.97 125.00 130.00
M 297.00 180.00 
C 282.33 180.00 267.67 180.00 253.00 180.00
C 253.00 168.00 253.00 156.00 253.00 144.00
C 266.78 144.27 280.93 142.08 289.30 148.71 C 297.68 155.34 297.88 166.67 297.00 180.00
M 239.00 194.00 
C 239.00 205.67 239.00 217.33 239.00 229.00
C 186.26 227.33 131.72 227.33 79.00 229.00
C 79.00 217.33 79.00 205.67 79.00 194.00
C 132.33 194.00 185.67 194.00 239.00 194.00
M 297.00 194.00 
C 297.00 205.67 297.00 217.33 297.00 229.00
C 282.33 229.00 267.67 229.00 253.00 229.00
C 253.00 217.33 253.00 205.67 253.00 194.00
C 267.67 194.00 282.33 194.00 297.00 194.00
M 239.00 243.00 
C 239.00 254.67 239.00 266.33 239.00 278.00
C 186.26 276.33 131.72 276.33 79.00 278.00
C 79.00 266.33 79.00 254.67 79.00 243.00
C 132.33 243.00 185.67 243.00 239.00 243.00
M 297.00 243.00 
C 297.00 250.67 297.00 258.33 297.00 266.00
C 285.66 258.85 266.14 262.50 267.00 278.00
C 262.33 278.00 257.67 278.00 253.00 278.00
C 254.66 266.91 254.66 254.06 253.00 243.00
C 267.67 243.00 282.33 243.00 297.00 243.00
M 358.00 311.00 
C 347.03 316.13 334.03 313.57 325.77 321.77 C 317.51 329.97 320.37 342.44 315.00 354.00
C 312.61 353.67 312.38 352.74 310.00 352.00
C 307.93 338.69 299.31 327.62 295.09 314.90 C 290.88 302.18 283.80 290.53 282.00 277.00
C 291.35 279.52 299.92 283.76 308.30 287.71 C 316.68 291.65 325.71 293.13 333.75 297.39 C 341.80 301.66 352.43 303.03 358.00 311.00
M 239.00 292.00 
C 239.00 304.00 239.00 316.00 239.00 328.00
C 217.32 326.31 191.83 326.81 170.00 327.00 C 148.17 327.19 119.62 326.28 99.00 327.00 C 78.38 327.72 79.58 311.10 79.00 292.00
C 132.33 292.00 185.67 292.00 239.00 292.00
M 271.00 292.00 
C 274.09 304.41 279.07 314.15 285.00 327.00
C 275.35 328.86 263.65 327.65 253.00 328.00
C 253.00 316.00 253.00 304.00 253.00 292.00
C 259.00 292.00 265.00 292.00 271.00 292.00 Z"/>
</g>
<g fill="#000000" fill-opacity="0.96" stroke="None">
<path d="
M 396.00 156.00 
C 397.83 144.89 388.19 137.47 380.00 146.00
C 380.89 148.74 381.06 151.61 381.00 155.00
C 367.72 157.30 355.25 173.61 359.41 188.25 C 363.57 202.88 377.80 208.68 390.08 211.87 C 402.36 215.06 413.25 233.38 395.00 243.00
C 397.66 233.22 397.21 215.42 386.25 216.81 C 375.29 218.20 384.46 235.25 380.00 245.00
C 370.45 240.81 356.22 232.29 356.00 249.00
C 364.53 254.75 369.35 259.51 380.00 259.00
C 381.90 262.01 380.91 265.92 380.00 269.00
C 387.85 277.94 399.58 269.45 395.00 258.00
C 407.12 256.88 416.50 246.39 419.65 234.70 C 422.80 223.01 415.32 206.06 404.25 201.19 C 393.19 196.32 384.07 195.75 374.00 187.00
C 374.68 180.10 373.33 173.99 381.00 171.00
C 380.32 180.14 379.52 189.63 387.92 189.06 C 396.32 188.49 395.91 179.79 396.00 171.00
C 400.80 172.57 403.59 175.68 410.00 175.00
C 419.71 164.65 404.60 154.75 396.00 156.00 Z"/>
</g>
<g fill="#000000" fill-opacity="0.04" stroke="None">
<path d="
M 297.00 180.00 
C 297.88 166.67 297.68 155.34 289.30 148.71 C 280.93 142.08 266.78 144.27 253.00 144.00
C 253.00 156.00 253.00 168.00 253.00 180.00
C 267.67 180.00 282.33 180.00 297.00 180.00 Z"/>
</g>
<g fill="#000000" fill-opacity="0.03" stroke="None">
<path d="
M 239.00 194.00 
C 185.67 194.00 132.33 194.00 79.00 194.00
C 79.00 205.67 79.00 217.33 79.00 229.00
C 131.72 227.33 186.26 227.33 239.00 229.00
C 239.00 217.33 239.00 205.67 239.00 194.00 Z"/>
</g>
<g fill="#000000" fill-opacity="0.04" stroke="None">
<path d="
M 297.00 194.00 
C 282.33 194.00 267.67 194.00 253.00 194.00
C 253.00 205.67 253.00 217.33 253.00 229.00
C 267.67 229.00 282.33 229.00 297.00 229.00
C 297.00 217.33 297.00 205.67 297.00 194.00 Z"/>
</g>
<g fill="#000000" fill-opacity="0.03" stroke="None">
<path d="
M 239.00 243.00 
C 185.67 243.00 132.33 243.00 79.00 243.00
C 79.00 254.67 79.00 266.33 79.00 278.00
C 131.72 276.33 186.26 276.33 239.00 278.00
C 239.00 266.33 239.00 254.67 239.00 243.00 Z"/>
</g>
<g fill="#000000" fill-opacity="0.05" stroke="None">
<path d="
M 297.00 243.00 
C 282.33 243.00 267.67 243.00 253.00 243.00
C 254.66 254.06 254.66 266.91 253.00 278.00
C 257.67 278.00 262.33 278.00 267.00 278.00
C 266.14 262.50 285.66 258.85 297.00 266.00
C 297.00 258.33 297.00 250.67 297.00 243.00 Z"/>
</g>
<g fill="#000000" fill-opacity="0.04" stroke="None">
<path d="
M 358.00 311.00 
C 352.43 303.03 341.80 301.66 333.75 297.39 C 325.71 293.13 316.68 291.65 308.30 287.71 C 299.92 283.76 291.35 279.52 282.00 277.00
C 283.80 290.53 290.88 302.18 295.09 314.90 C 299.31 327.62 307.93 338.69 310.00 352.00
C 312.38 352.74 312.61 353.67 315.00 354.00
C 320.37 342.44 317.51 329.97 325.77 321.77 C 334.03 313.57 347.03 316.13 358.00 311.00 Z"/>
</g>
<g fill="#000000" fill-opacity="0.03" stroke="None">
<path d="
M 239.00 292.00 
C 185.67 292.00 132.33 292.00 79.00 292.00
C 79.58 311.10 78.38 327.72 99.00 327.00 C 119.62 326.28 148.17 327.19 170.00 327.00 C 191.83 326.81 217.32 326.31 239.00 328.00
C 239.00 316.00 239.00 304.00 239.00 292.00 Z"/>
</g>
<g fill="#000000" fill-opacity="0.05" stroke="None">
<path d="
M 271.00 292.00 
C 265.00 292.00 259.00 292.00 253.00 292.00
C 253.00 304.00 253.00 316.00 253.00 328.00
C 263.65 327.65 275.35 328.86 285.00 327.00
C 279.07 314.15 274.09 304.41 271.00 292.00 Z"/>
</g>
<g fill="#000000" fill-opacity="0.02" stroke="None">
<path d="
M 238.00 497.00 
C 238.60 478.88 237.20 463.38 238.00 445.00 C 238.80 426.62 236.47 412.34 238.00 393.00 C 239.53 373.66 231.70 374.55 214.00 374.00 C 196.30 373.45 188.79 374.87 190.00 394.00 C 191.21 413.13 189.36 427.81 190.00 446.00 C 190.64 464.19 189.52 479.11 190.00 497.00
C 206.00 497.00 222.00 497.00 238.00 497.00 Z"/>
</g>
<g fill="#000000" fill-opacity="0.02" stroke="None">
<path d="
M 337.00 497.00 
C 336.74 483.50 337.34 468.33 337.00 455.00 C 336.66 441.67 337.69 426.84 336.97 414.03 C 336.26 401.22 324.81 404.35 314.00 404.00 C 303.19 403.65 288.83 401.37 289.00 415.00 C 289.17 428.63 288.91 442.35 289.00 456.00 C 289.09 469.65 288.93 483.35 289.00 497.00
C 305.00 497.00 321.00 497.00 337.00 497.00 Z"/>
</g>
<g fill="#000000" fill-opacity="0.02" stroke="None">
<path d="
M 0.00 512.00 
L 163.00 512.00
C 162.33 510.66 160.17 509.75 159.00 511.00
C 155.60 506.74 157.36 504.04 157.00 500.00
C 161.96 496.25 168.54 497.15 176.00 497.00
C 176.00 491.00 176.00 485.00 176.00 479.00
C 147.00 479.17 110.22 478.78 82.00 479.00 C 53.78 479.22 43.14 479.67 26.77 468.24 C 10.40 456.80 3.29 440.36 0.00 423.00
L 0.00 512.00 Z"/>
</g>
<g fill="#000000" fill-opacity="0.02" stroke="None">
<path d="
M 476.00 512.00 
L 512.00 512.00
L 512.00 423.00
C 508.15 453.18 481.12 480.62 449.00 479.00
C 449.00 485.00 449.00 491.00 449.00 497.00
C 463.21 497.33 487.68 492.78 481.00 510.00
C 479.61 511.41 476.97 510.36 476.00 512.00 Z"/>
</g>
<g fill="#000000" fill-opacity="0.10" stroke="None">
<path d="
M 275.00 449.00 
C 267.92 450.64 259.11 450.65 252.00 449.00
C 252.00 454.33 252.00 459.67 252.00 465.00
C 259.67 465.00 267.33 465.00 275.00 465.00
C 275.00 459.67 275.00 454.33 275.00 449.00 Z"/>
</g>
<g fill="#000000" fill-opacity="0.05" stroke="None">
<path d="
M 373.00 449.00 
C 366.25 450.64 357.77 450.65 351.00 449.00
C 351.00 454.33 351.00 459.67 351.00 465.00
C 358.33 465.00 365.67 465.00 373.00 465.00
C 373.00 459.67 373.00 454.33 373.00 449.00 Z"/>
</g>
<g fill="#000000" fill-opacity="0.06" stroke="None">
<path d="
M 275.00 479.00 
C 267.92 480.64 259.11 480.65 252.00 479.00
C 252.00 485.00 252.00 491.00 252.00 497.00
C 259.67 497.00 267.33 497.00 275.00 497.00
C 275.00 491.00 275.00 485.00 275.00 479.00 Z"/>
</g>
<g fill="#000000" fill-opacity="0.02" stroke="None">
<path d="
M 373.00 479.00 
C 366.25 480.64 357.77 480.65 351.00 479.00
C 351.00 485.00 351.00 491.00 351.00 497.00
C 358.33 497.00 365.67 497.00 373.00 497.00
C 373.00 491.00 373.00 485.00 373.00 479.00 Z"/>
</g>
</svg>