<svg xmlns="http://www.w3.org/2000/svg" xmlns:v="https://svgstorm.com"
viewBox = "0 0 512 512"
width="512"
height="512">
<g fill="None" fill-opacity="0.0" stroke="#000000" stroke-opacity="0.01" stroke-width="0.3"><path d="
M 0.00 236.00 
C 4.88 177.97 31.08 126.37 69.00 82.00
C 73.25 77.02 78.07 72.21 83.00 68.00
C 127.01 30.39 178.68 5.11 236.00 0.00
L 0.00 0.00
L 0.00 236.00 Z"/>
</g>
<g fill="None" fill-opacity="0.0" stroke="#000000" stroke-opacity="0.99" stroke-width="0.3"><path d="
M 83.00 68.00 
C 78.41 72.59 73.54 77.46 69.00 82.00
C 31.08 126.37 4.88 177.97 0.00 236.00
L 0.00 263.00
C 1.99 266.44 0.71 271.80 1.00 276.00
C 1.91 289.42 5.47 303.85 8.32 316.68 C 11.17 329.51 16.42 341.15 20.77 353.23 C 25.12 365.31 46.56 362.81 48.00 349.00
C 48.20 347.12 48.16 344.88 48.00 343.00
C 45.02 328.30 38.31 316.51 35.67 301.33 C 33.04 286.15 30.00 269.17 30.00 253.00
C 30.00 249.90 30.77 246.36 31.00 244.00
C 31.00 192.65 55.20 143.39 88.00 105.00
C 92.84 99.33 98.38 93.80 104.00 89.00
C 142.93 55.74 191.84 31.00 244.00 31.00
C 246.10 30.80 249.23 30.00 252.00 30.00
C 256.65 30.00 261.35 29.81 266.00 30.00
C 267.93 30.08 269.71 30.77 271.00 31.00
C 309.22 33.69 351.91 46.24 383.00 69.00
C 384.10 69.81 385.66 70.53 386.00 72.00
C 384.00 72.00 382.00 72.00 380.00 72.00
C 375.09 74.48 369.96 76.65 369.00 83.00
C 368.73 84.77 368.79 87.22 369.00 89.00
C 372.33 102.85 390.75 105.39 403.07 108.93 C 415.40 112.46 430.96 120.86 444.00 122.00
C 445.88 122.16 448.12 122.20 450.00 122.00
C 455.61 120.72 461.22 116.22 462.00 110.00
C 462.01 109.83 462.01 105.14 462.00 105.00
C 460.63 92.25 453.28 79.01 449.22 66.78 C 445.17 54.54 444.88 40.37 433.75 31.25 C 422.62 22.12 402.45 40.96 413.00 54.00
C 372.75 23.77 325.17 5.13 275.00 1.00
C 272.13 0.80 268.04 1.94 266.00 0.00
L 247.00 0.00
C 245.67 1.47 241.26 1.71 240.00 0.00
L 236.00 0.00
C 178.68 5.11 127.01 30.39 83.00 68.00 Z"/>
</g>
<g fill="None" fill-opacity="0.0" stroke="#000000" stroke-opacity="0.68" stroke-width="0.3"><path d="
M 247.00 0.00 
L 240.00 0.00
C 241.26 1.71 245.67 1.47 247.00 0.00 Z"/>
</g>
<g fill="None" fill-opacity="0.0" stroke="#000000" stroke-opacity="0.54" stroke-width="0.3"><path d="
M 275.00 1.00 
C 274.94 0.99 275.00 0.00 275.00 0.00
L 266.00 0.00
C 268.04 1.94 272.13 0.80 275.00 1.00 Z"/>
</g>
<g fill="None" fill-opacity="0.0" stroke="#000000" stroke-opacity="0.00" stroke-width="0.3"><path d="
M 275.00 1.00 
C 325.17 5.13 372.75 23.77 413.00 54.00
C 402.45 40.96 422.62 22.12 433.75 31.25 C 444.88 40.37 445.17 54.54 449.22 66.78 C 453.28 79.01 460.63 92.25 462.00 105.00
C 462.16 106.52 462.19 108.48 462.00 110.00
C 461.22 116.22 455.61 120.72 450.00 122.00
C 447.54 122.56 446.39 122.48 444.00 122.00
C 430.96 120.86 415.40 112.46 403.07 108.93 C 390.75 105.39 372.33 102.85 369.00 89.00
C 368.39 86.48 368.25 85.52 369.00 83.00
C 369.96 76.65 375.09 74.48 380.00 72.00
C 381.68 71.15 384.34 71.41 383.00 69.00
C 351.91 46.24 309.22 33.69 271.00 31.00
C 269.23 30.88 267.14 30.16 266.00 30.00
C 261.35 29.81 256.65 30.00 252.00 30.00
C 249.90 30.20 246.77 31.00 244.00 31.00
C 191.84 31.00 142.93 55.74 104.00 89.00
C 98.75 94.25 93.20 99.80 88.00 105.00
C 55.20 143.39 31.00 192.65 31.00 244.00
C 31.00 247.10 30.23 250.64 30.00 253.00
C 30.00 269.17 33.04 286.15 35.67 301.33 C 38.31 316.51 45.02 328.30 48.00 343.00
C 48.49 345.44 48.55 346.58 48.00 349.00
C 46.56 362.81 25.12 365.31 20.77 353.23 C 16.42 341.15 11.17 329.51 8.32 316.68 C 5.47 303.85 1.91 289.42 1.00 276.00
C 0.99 275.94 0.00 276.00 0.00 276.00
L 0.00 512.00
L 235.00 512.00
C 186.61 506.93 139.78 488.42 100.00 460.00
C 111.58 477.57 80.62 491.41 74.03 475.97 C 67.44 460.54 63.54 445.51 58.22 430.78 C 52.91 416.05 43.06 397.12 62.00 390.00
C 64.56 389.21 65.53 389.41 68.00 390.00
C 79.76 391.37 97.89 399.81 108.68 403.32 C 119.46 406.83 141.84 409.63 144.00 423.00
C 144.27 424.66 144.30 427.35 144.00 429.00
C 143.00 434.56 137.02 439.09 132.00 440.00
C 130.10 440.78 127.97 440.59 129.00 443.00
C 143.40 455.19 160.67 460.61 178.07 467.93 C 195.48 475.24 219.68 480.35 239.00 482.00
C 240.06 482.00 242.87 481.90 244.00 482.00
C 249.33 482.00 254.67 482.00 260.00 482.00
C 262.39 481.77 265.73 481.87 268.00 482.00
C 293.97 481.01 325.07 473.71 347.69 462.70 C 370.32 451.68 390.91 441.66 408.00 423.00
C 412.75 417.82 417.70 412.53 423.00 408.00
C 442.12 391.66 451.04 370.47 462.32 348.32 C 473.61 326.17 480.73 294.64 482.00 269.00
C 481.92 267.05 481.81 263.96 482.00 262.00
C 482.00 244.96 480.33 227.54 477.22 211.78 C 474.11 196.01 467.99 184.10 464.00 169.00
C 463.33 166.46 463.32 165.50 464.00 163.00
C 465.97 149.33 486.96 147.45 492.30 159.70 C 497.65 171.95 501.15 183.26 504.78 196.22 C 508.41 209.18 509.70 224.98 512.00 238.00
L 512.00 0.00
L 275.00 0.00
C 275.00 0.00 274.94 0.99 275.00 1.00
M 416.00 204.00 
C 416.21 205.50 416.16 207.50 416.00 209.00
C 414.61 221.89 397.66 224.93 389.00 231.00
C 394.18 244.65 388.54 264.97 389.02 278.02 C 389.51 291.08 415.54 287.23 416.00 302.00
C 416.28 303.71 416.25 306.28 416.00 308.00
C 414.42 318.97 403.84 329.65 398.70 339.70 C 393.55 349.74 388.55 361.32 379.75 369.75 C 370.95 378.19 352.13 364.07 345.00 359.00
C 330.98 367.83 317.17 378.24 301.00 383.00
C 301.91 398.36 304.31 421.32 284.00 421.00 C 263.69 420.68 249.26 420.47 229.00 421.00 C 208.74 421.53 209.73 398.57 211.00 383.00
C 198.17 376.02 187.43 376.37 176.25 364.75 C 165.07 353.13 154.56 372.55 141.00 372.00 C 127.44 371.45 122.61 352.91 116.08 342.92 C 109.54 332.94 101.64 319.07 97.00 308.00
C 96.43 305.51 96.41 304.45 97.00 302.00
C 98.42 289.81 116.16 287.17 124.00 281.00
C 119.83 264.66 121.45 247.76 123.00 231.00
C 113.89 225.21 99.40 222.15 97.00 210.00
C 96.33 207.47 96.44 206.45 97.00 204.00
C 98.16 192.83 109.49 181.71 114.75 171.75 C 120.02 161.80 124.53 148.32 134.70 141.70 C 144.86 135.08 159.81 150.57 169.00 154.00
C 180.78 142.90 195.71 134.75 211.00 130.00
C 209.66 113.88 208.56 89.96 230.00 91.00 C 251.44 92.04 266.94 89.95 288.22 91.78 C 309.50 93.60 293.62 124.90 306.23 131.77 C 318.84 138.64 333.26 142.64 343.00 154.00
C 357.19 140.77 380.29 135.13 388.77 155.23 C 397.25 175.33 408.36 184.40 416.00 204.00 Z"/>
</g>
<g fill="None" fill-opacity="0.0" stroke="#000000" stroke-opacity="0.20" stroke-width="0.3"><path d="
M 244.00 31.00 
C 246.77 31.00 249.90 30.20 252.00 30.00
C 249.23 30.00 246.10 30.80 244.00 31.00 Z"/>
</g>
<g fill="None" fill-opacity="0.0" stroke="#000000" stroke-opacity="0.41" stroke-width="0.3"><path d="
M 271.00 31.00 
C 269.71 30.77 267.93 30.08 266.00 30.00
C 267.14 30.16 269.23 30.88 271.00 31.00 Z"/>
</g>
<g fill="None" fill-opacity="0.0" stroke="#000000" stroke-opacity="0.79" stroke-width="0.3"><path d="
M 69.00 82.00 
C 73.54 77.46 78.41 72.59 83.00 68.00
C 78.07 72.21 73.25 77.02 69.00 82.00 Z"/>
</g>
<g fill="None" fill-opacity="0.0" stroke="#000000" stroke-opacity="0.58" stroke-width="0.3"><path d="
M 380.00 72.00 
C 382.00 72.00 384.00 72.00 386.00 72.00
C 385.66 70.53 384.10 69.81 383.00 69.00
C 384.34 71.41 381.68 71.15 380.00 72.00 Z"/>
</g>
<g fill="None" fill-opacity="0.0" stroke="#000000" stroke-opacity="0.59" stroke-width="0.3"><path d="
M 369.00 89.00 
C 368.79 87.22 368.73 84.77 369.00 83.00
C 368.25 85.52 368.39 86.48 369.00 89.00 Z"/>
</g>
<g fill="None" fill-opacity="0.0" stroke="#000000" stroke-opacity="0.27" stroke-width="0.3"><path d="
M 88.00 105.00 
C 93.20 99.80 98.75 94.25 104.00 89.00
C 98.38 93.80 92.84 99.33 88.00 105.00 Z"/>
</g>
<g fill="None" fill-opacity="0.0" stroke="#000000" stroke-opacity="1.00" stroke-width="0.3"><path d="
M 97.00 204.00 
C 96.81 205.82 96.76 208.19 97.00 210.00
C 99.40 222.15 113.89 225.21 123.00 231.00
C 121.45 247.76 119.83 264.66 124.00 281.00
C 116.16 287.17 98.42 289.81 97.00 302.00
C 96.79 303.84 96.81 306.16 97.00 308.00
C 101.64 319.07 109.54 332.94 116.08 342.92 C 122.61 352.91 127.44 371.45 141.00 372.00 C 154.56 372.55 165.07 353.13 176.25 364.75 C 187.43 376.37 198.17 376.02 211.00 383.00
C 209.73 398.57 208.74 421.53 229.00 421.00 C 249.26 420.47 263.69 420.68 284.00 421.00 C 304.31 421.32 301.91 398.36 301.00 383.00
C 317.17 378.24 330.98 367.83 345.00 359.00
C 352.13 364.07 370.95 378.19 379.75 369.75 C 388.55 361.32 393.55 349.74 398.70 339.70 C 403.84 329.65 414.42 318.97 416.00 308.00
C 416.00 308.00 415.99 301.88 416.00 302.00
C 415.54 287.23 389.51 291.08 389.02 278.02 C 388.54 264.97 394.18 244.65 389.00 231.00
C 397.66 224.93 414.61 221.89 416.00 209.00
C 416.01 208.83 416.00 204.06 416.00 204.00
C 408.36 184.40 397.25 175.33 388.77 155.23 C 380.29 135.13 357.19 140.77 343.00 154.00
C 333.26 142.64 318.84 138.64 306.23 131.77 C 293.62 124.90 309.50 93.60 288.22 91.78 C 266.94 89.95 251.44 92.04 230.00 91.00 C 208.56 89.96 209.66 113.88 211.00 130.00
C 195.71 134.75 180.78 142.90 169.00 154.00
C 159.81 150.57 144.86 135.08 134.70 141.70 C 124.53 148.32 120.02 161.80 114.75 171.75 C 109.49 181.71 98.16 192.83 97.00 204.00
M 284.00 221.00 
C 287.33 223.48 290.56 226.72 293.00 230.00
C 304.62 245.63 303.75 269.65 291.00 284.00
C 288.77 286.51 286.46 288.82 284.00 291.00
C 270.78 304.75 244.73 303.95 230.00 293.00
C 226.67 290.52 223.44 287.28 221.00 284.00
C 208.34 266.97 208.37 244.99 221.00 228.00
C 222.98 225.33 225.39 222.94 228.00 221.00
C 245.09 208.29 266.92 208.30 284.00 221.00 Z"/>
</g>
<g fill="None" fill-opacity="0.0" stroke="#000000" stroke-opacity="0.82" stroke-width="0.3"><path d="
M 462.00 110.00 
C 462.19 108.48 462.16 106.52 462.00 105.00
C 462.01 105.14 462.01 109.83 462.00 110.00 Z"/>
</g>
<g fill="None" fill-opacity="0.0" stroke="#000000" stroke-opacity="0.38" stroke-width="0.3"><path d="
M 450.00 122.00 
C 448.12 122.20 445.88 122.16 444.00 122.00
C 446.39 122.48 447.54 122.56 450.00 122.00 Z"/>
</g>
<g fill="None" fill-opacity="0.0" stroke="#000000" stroke-opacity="0.99" stroke-width="0.3"><path d="
M 464.00 163.00 
C 463.75 164.76 463.76 167.24 464.00 169.00
C 467.99 184.10 474.11 196.01 477.22 211.78 C 480.33 227.54 482.00 244.96 482.00 262.00
C 482.00 264.32 482.12 266.68 482.00 269.00
C 480.73 294.64 473.61 326.17 462.32 348.32 C 451.04 370.47 442.12 391.66 423.00 408.00
C 418.05 412.95 413.08 418.25 408.00 423.00
C 390.91 441.66 370.32 451.68 347.69 462.70 C 325.07 473.71 293.97 481.01 268.00 482.00
C 265.34 482.10 262.66 482.00 260.00 482.00
C 254.67 482.00 249.33 482.00 244.00 482.00
C 242.35 482.00 240.64 482.14 239.00 482.00
C 219.68 480.35 195.48 475.24 178.07 467.93 C 160.67 460.61 143.40 455.19 129.00 443.00
C 127.97 442.13 126.29 441.52 126.00 440.00
C 128.00 440.00 130.00 440.00 132.00 440.00
C 137.02 439.09 143.00 434.56 144.00 429.00
C 143.97 429.25 143.96 422.70 144.00 423.00
C 141.84 409.63 119.46 406.83 108.68 403.32 C 97.89 399.81 79.76 391.37 68.00 390.00
C 66.24 389.79 63.75 389.72 62.00 390.00
C 43.06 397.12 52.91 416.05 58.22 430.78 C 63.54 445.51 67.44 460.54 74.03 475.97 C 80.62 491.41 111.58 477.57 100.00 460.00
C 139.78 488.42 186.61 506.93 235.00 512.00
L 238.00 512.00
C 238.83 510.49 241.44 511.00 243.00 511.00
C 244.31 510.58 247.41 510.63 248.00 512.00
L 263.00 512.00
C 264.64 510.50 269.43 510.28 271.00 512.00
L 277.00 512.00
C 330.91 503.61 393.12 486.33 431.00 442.00
C 434.37 438.06 438.11 434.33 442.00 431.00
C 486.34 393.11 503.61 330.86 512.00 277.00
L 512.00 269.00
C 510.57 267.97 510.31 263.96 512.00 263.00
L 512.00 249.00
C 510.53 247.67 510.29 243.26 512.00 242.00
L 512.00 238.00
C 509.70 224.98 508.41 209.18 504.78 196.22 C 501.15 183.26 497.65 171.95 492.30 159.70 C 486.96 147.45 465.97 149.33 464.00 163.00 Z"/>
</g>
<g fill="None" fill-opacity="0.0" stroke="#000000" stroke-opacity="0.37" stroke-width="0.3"><path d="
M 464.00 169.00 
C 463.76 167.24 463.75 164.76 464.00 163.00
C 463.32 165.50 463.33 166.46 464.00 169.00 Z"/>
</g>
<g fill="None" fill-opacity="0.0" stroke="#000000" stroke-opacity="0.76" stroke-width="0.3"><path d="
M 97.00 210.00 
C 96.76 208.19 96.81 205.82 97.00 204.00
C 96.44 206.45 96.33 207.47 97.00 210.00 Z"/>
</g>
<g fill="None" fill-opacity="0.0" stroke="#000000" stroke-opacity="0.78" stroke-width="0.3"><path d="
M 416.00 209.00 
C 416.16 207.50 416.21 205.50 416.00 204.00
C 416.00 204.06 416.01 208.83 416.00 209.00 Z"/>
</g>
<g fill="None" fill-opacity="0.0" stroke="#000000" stroke-opacity="0.01" stroke-width="0.3"><path d="
M 228.00 221.00 
C 225.87 222.86 222.81 225.92 221.00 228.00
C 208.37 244.99 208.34 266.97 221.00 284.00
C 223.46 286.82 227.23 290.59 230.00 293.00
C 244.73 303.95 270.78 304.75 284.00 291.00
C 286.26 288.65 288.70 286.21 291.00 284.00
C 303.75 269.65 304.62 245.63 293.00 230.00
C 290.54 227.18 286.77 223.41 284.00 221.00
C 266.92 208.30 245.09 208.29 228.00 221.00 Z"/>
</g>
<g fill="None" fill-opacity="0.0" stroke="#000000" stroke-opacity="0.16" stroke-width="0.3"><path d="
M 221.00 228.00 
C 222.81 225.92 225.87 222.86 228.00 221.00
C 225.39 222.94 222.98 225.33 221.00 228.00 Z"/>
</g>
<g fill="None" fill-opacity="0.0" stroke="#000000" stroke-opacity="0.25" stroke-width="0.3"><path d="
M 293.00 230.00 
C 290.56 226.72 287.33 223.48 284.00 221.00
C 286.77 223.41 290.54 227.18 293.00 230.00 Z"/>
</g>
<g fill="None" fill-opacity="0.0" stroke="#000000" stroke-opacity="0.73" stroke-width="0.3"><path d="
M 512.00 249.00 
L 512.00 242.00
C 510.29 243.26 510.53 247.67 512.00 249.00 Z"/>
</g>
<g fill="None" fill-opacity="0.0" stroke="#000000" stroke-opacity="0.18" stroke-width="0.3"><path d="
M 30.00 253.00 
C 30.23 250.64 31.00 247.10 31.00 244.00
C 30.77 246.36 30.00 249.90 30.00 253.00 Z"/>
</g>
<g fill="None" fill-opacity="0.0" stroke="#000000" stroke-opacity="0.25" stroke-width="0.3"><path d="
M 482.00 269.00 
C 482.12 266.68 482.00 264.32 482.00 262.00
C 481.81 263.96 481.92 267.05 482.00 269.00 Z"/>
</g>
<g fill="None" fill-opacity="0.0" stroke="#000000" stroke-opacity="0.56" stroke-width="0.3"><path d="
M 0.00 276.00 
C 0.00 276.00 0.99 275.94 1.00 276.00
C 0.71 271.80 1.99 266.44 0.00 263.00
L 0.00 276.00 Z"/>
</g>
<g fill="None" fill-opacity="0.0" stroke="#000000" stroke-opacity="0.78" stroke-width="0.3"><path d="
M 512.00 269.00 
L 512.00 263.00
C 510.31 263.96 510.57 267.97 512.00 269.00 Z"/>
</g>
<g fill="None" fill-opacity="0.0" stroke="#000000" stroke-opacity="0.00" stroke-width="0.3"><path d="
M 442.00 431.00 
C 438.41 434.59 434.54 438.46 431.00 442.00
C 393.12 486.33 330.91 503.61 277.00 512.00
L 512.00 512.00
L 512.00 277.00
C 503.61 330.86 486.34 393.11 442.00 431.00 Z"/>
</g>
<g fill="None" fill-opacity="0.0" stroke="#000000" stroke-opacity="0.27" stroke-width="0.3"><path d="
M 230.00 293.00 
C 227.23 290.59 223.46 286.82 221.00 284.00
C 223.44 287.28 226.67 290.52 230.00 293.00 Z"/>
</g>
<g fill="None" fill-opacity="0.0" stroke="#000000" stroke-opacity="0.16" stroke-width="0.3"><path d="
M 284.00 291.00 
C 286.46 288.82 288.77 286.51 291.00 284.00
C 288.70 286.21 286.26 288.65 284.00 291.00 Z"/>
</g>
<g fill="None" fill-opacity="0.0" stroke="#000000" stroke-opacity="0.76" stroke-width="0.3"><path d="
M 97.00 308.00 
C 96.81 306.16 96.79 303.84 97.00 302.00
C 96.41 304.45 96.43 305.51 97.00 308.00 Z"/>
</g>
<g fill="None" fill-opacity="0.0" stroke="#000000" stroke-opacity="0.75" stroke-width="0.3"><path d="
M 416.00 308.00 
C 416.25 306.28 416.28 303.71 416.00 302.00
C 415.99 301.88 416.00 308.00 416.00 308.00 Z"/>
</g>
<g fill="None" fill-opacity="0.0" stroke="#000000" stroke-opacity="0.36" stroke-width="0.3"><path d="
M 48.00 349.00 
C 48.55 346.58 48.49 345.44 48.00 343.00
C 48.16 344.88 48.20 347.12 48.00 349.00 Z"/>
</g>
<g fill="None" fill-opacity="0.0" stroke="#000000" stroke-opacity="0.38" stroke-width="0.3"><path d="
M 62.00 390.00 
C 63.75 389.72 66.24 389.79 68.00 390.00
C 65.53 389.41 64.56 389.21 62.00 390.00 Z"/>
</g>
<g fill="None" fill-opacity="0.0" stroke="#000000" stroke-opacity="0.26" stroke-width="0.3"><path d="
M 408.00 423.00 
C 413.08 418.25 418.05 412.95 423.00 408.00
C 417.70 412.53 412.75 417.82 408.00 423.00 Z"/>
</g>
<g fill="None" fill-opacity="0.0" stroke="#000000" stroke-opacity="0.57" stroke-width="0.3"><path d="
M 144.00 429.00 
C 144.30 427.35 144.27 424.66 144.00 423.00
C 143.96 422.70 143.97 429.25 144.00 429.00 Z"/>
</g>
<g fill="None" fill-opacity="0.0" stroke="#000000" stroke-opacity="0.81" stroke-width="0.3"><path d="
M 431.00 442.00 
C 434.54 438.46 438.41 434.59 442.00 431.00
C 438.11 434.33 434.37 438.06 431.00 442.00 Z"/>
</g>
<g fill="None" fill-opacity="0.0" stroke="#000000" stroke-opacity="0.58" stroke-width="0.3"><path d="
M 129.00 443.00 
C 127.97 440.59 130.10 440.78 132.00 440.00
C 130.00 440.00 128.00 440.00 126.00 440.00
C 126.29 441.52 127.97 442.13 129.00 443.00 Z"/>
</g>
<g fill="None" fill-opacity="0.0" stroke="#000000" stroke-opacity="0.54" stroke-width="0.3"><path d="
M 239.00 482.00 
C 240.64 482.14 242.35 482.00 244.00 482.00
C 242.87 481.90 240.06 482.00 239.00 482.00 Z"/>
</g>
<g fill="None" fill-opacity="0.0" stroke="#000000" stroke-opacity="0.21" stroke-width="0.3"><path d="
M 260.00 482.00 
C 262.66 482.00 265.34 482.10 268.00 482.00
C 265.73 481.87 262.39 481.77 260.00 482.00 Z"/>
</g>
<g fill="None" fill-opacity="0.0" stroke="#000000" stroke-opacity="0.48" stroke-width="0.3"><path d="
M 238.00 512.00 
L 243.00 512.00
C 243.00 511.50 243.00 511.00 243.00 511.00
C 241.44 511.00 238.83 510.49 238.00 512.00 Z"/>
</g>
<g fill="None" fill-opacity="0.0" stroke="#000000" stroke-opacity="0.74" stroke-width="0.3"><path d="
M 243.00 512.00 
L 248.00 512.00
C 247.41 510.63 244.31 510.58 243.00 511.00
C 243.00 511.00 243.00 511.50 243.00 512.00 Z"/>
</g>
<g fill="None" fill-opacity="0.0" stroke="#000000" stroke-opacity="0.74" stroke-width="0.3"><path d="
M 263.00 512.00 
L 271.00 512.00
C 269.43 510.28 264.64 510.50 263.00 512.00 Z"/>
</g>
<g fill="#000000" fill-opacity="0.01" stroke="None">
<path d="
M 0.00 236.00 
C 4.88 177.97 31.08 126.37 69.00 82.00
C 73.25 77.02 78.07 72.21 83.00 68.00
C 127.01 30.39 178.68 5.11 236.00 0.00
L 0.00 0.00
L 0.00 236.00 Z"/>
</g>
<g fill="#000000" fill-opacity="0.99" stroke="None">
<path d="
M 83.00 68.00 
C 78.41 72.59 73.54 77.46 69.00 82.00
C 31.08 126.37 4.88 177.97 0.00 236.00
L 0.00 263.00
C 1.99 266.44 0.71 271.80 1.00 276.00
C 1.91 289.42 5.47 303.85 8.32 316.68 C 11.17 329.51 16.42 341.15 20.77 353.23 C 25.12 365.31 46.56 362.81 48.00 349.00
C 48.20 347.12 48.16 344.88 48.00 343.00
C 45.02 328.30 38.31 316.51 35.67 301.33 C 33.04 286.15 30.00 269.17 30.00 253.00
C 30.00 249.90 30.77 246.36 31.00 244.00
C 31.00 192.65 55.20 143.39 88.00 105.00
C 92.84 99.33 98.38 93.80 104.00 89.00
C 142.93 55.74 191.84 31.00 244.00 31.00
C 246.10 30.80 249.23 30.00 252.00 30.00
C 256.65 30.00 261.35 29.81 266.00 30.00
C 267.93 30.08 269.71 30.77 271.00 31.00
C 309.22 33.69 351.91 46.24 383.00 69.00
C 384.10 69.81 385.66 70.53 386.00 72.00
C 384.00 72.00 382.00 72.00 380.00 72.00
C 375.09 74.48 369.96 76.65 369.00 83.00
C 368.73 84.77 368.79 87.22 369.00 89.00
C 372.33 102.85 390.75 105.39 403.07 108.93 C 415.40 112.46 430.96 120.86 444.00 122.00
C 445.88 122.16 448.12 122.20 450.00 122.00
C 455.61 120.72 461.22 116.22 462.00 110.00
C 462.01 109.83 462.01 105.14 462.00 105.00
C 460.63 92.25 453.28 79.01 449.22 66.78 C 445.17 54.54 444.88 40.37 433.75 31.25 C 422.62 22.12 402.45 40.96 413.00 54.00
C 372.75 23.77 325.17 5.13 275.00 1.00
C 272.13 0.80 268.04 1.94 266.00 0.00
L 247.00 0.00
C 245.67 1.47 241.26 1.71 240.00 0.00
L 236.00 0.00
C 178.68 5.11 127.01 30.39 83.00 68.00 Z"/>
</g>
<g fill="#000000" fill-opacity="0.68" stroke="None">
<path d="
M 247.00 0.00 
L 240.00 0.00
C 241.26 1.71 245.67 1.47 247.00 0.00 Z"/>
</g>
<g fill="#000000" fill-opacity="0.54" stroke="None">
<path d="
M 275.00 1.00 
C 274.94 0.99 275.00 0.00 275.00 0.00
L 266.00 0.00
C 268.04 1.94 272.13 0.80 275.00 1.00 Z"/>
</g>
<g fill="#000000" fill-opacity="0.00" stroke="None">
<path d="
M 275.00 1.00 
C 325.17 5.13 372.75 23.77 413.00 54.00
C 402.45 40.96 422.62 22.12 433.75 31.25 C 444.88 40.37 445.17 54.54 449.22 66.78 C 453.28 79.01 460.63 92.25 462.00 105.00
C 462.16 106.52 462.19 108.48 462.00 110.00
C 461.22 116.22 455.61 120.72 450.00 122.00
C 447.54 122.56 446.39 122.48 444.00 122.00
C 430.96 120.86 415.40 112.46 403.07 108.93 C 390.75 105.39 372.33 102.85 369.00 89.00
C 368.39 86.48 368.25 85.52 369.00 83.00
C 369.96 76.65 375.09 74.48 380.00 72.00
C 381.68 71.15 384.34 71.41 383.00 69.00
C 351.91 46.24 309.22 33.69 271.00 31.00
C 269.23 30.88 267.14 30.16 266.00 30.00
C 261.35 29.81 256.65 30.00 252.00 30.00
C 249.90 30.20 246.77 31.00 244.00 31.00
C 191.84 31.00 142.93 55.74 104.00 89.00
C 98.75 94.25 93.20 99.80 88.00 105.00
C 55.20 143.39 31.00 192.65 31.00 244.00
C 31.00 247.10 30.23 250.64 30.00 253.00
C 30.00 269.17 33.04 286.15 35.67 301.33 C 38.31 316.51 45.02 328.30 48.00 343.00
C 48.49 345.44 48.55 346.58 48.00 349.00
C 46.56 362.81 25.12 365.31 20.77 353.23 C 16.42 341.15 11.17 329.51 8.32 316.68 C 5.47 303.85 1.91 289.42 1.00 276.00
C 0.99 275.94 0.00 276.00 0.00 276.00
L 0.00 512.00
L 235.00 512.00
C 186.61 506.93 139.78 488.42 100.00 460.00
C 111.58 477.57 80.62 491.41 74.03 475.97 C 67.44 460.54 63.54 445.51 58.22 430.78 C 52.91 416.05 43.06 397.12 62.00 390.00
C 64.56 389.21 65.53 389.41 68.00 390.00
C 79.76 391.37 97.89 399.81 108.68 403.32 C 119.46 406.83 141.84 409.63 144.00 423.00
C 144.27 424.66 144.30 427.35 144.00 429.00
C 143.00 434.56 137.02 439.09 132.00 440.00
C 130.10 440.78 127.97 440.59 129.00 443.00
C 143.40 455.19 160.67 460.61 178.07 467.93 C 195.48 475.24 219.68 480.35 239.00 482.00
C 240.06 482.00 242.87 481.90 244.00 482.00
C 249.33 482.00 254.67 482.00 260.00 482.00
C 262.39 481.77 265.73 481.87 268.00 482.00
C 293.97 481.01 325.07 473.71 347.69 462.70 C 370.32 451.68 390.91 441.66 408.00 423.00
C 412.75 417.82 417.70 412.53 423.00 408.00
C 442.12 391.66 451.04 370.47 462.32 348.32 C 473.61 326.17 480.73 294.64 482.00 269.00
C 481.92 267.05 481.81 263.96 482.00 262.00
C 482.00 244.96 480.33 227.54 477.22 211.78 C 474.11 196.01 467.99 184.10 464.00 169.00
C 463.33 166.46 463.32 165.50 464.00 163.00
C 465.97 149.33 486.96 147.45 492.30 159.70 C 497.65 171.95 501.15 183.26 504.78 196.22 C 508.41 209.18 509.70 224.98 512.00 238.00
L 512.00 0.00
L 275.00 0.00
C 275.00 0.00 274.94 0.99 275.00 1.00
M 416.00 204.00 
C 416.21 205.50 416.16 207.50 416.00 209.00
C 414.61 221.89 397.66 224.93 389.00 231.00
C 394.18 244.65 388.54 264.97 389.02 278.02 C 389.51 291.08 415.54 287.23 416.00 302.00
C 416.28 303.71 416.25 306.28 416.00 308.00
C 414.42 318.97 403.84 329.65 398.70 339.70 C 393.55 349.74 388.55 361.32 379.75 369.75 C 370.95 378.19 352.13 364.07 345.00 359.00
C 330.98 367.83 317.17 378.24 301.00 383.00
C 301.91 398.36 304.31 421.32 284.00 421.00 C 263.69 420.68 249.26 420.47 229.00 421.00 C 208.74 421.53 209.73 398.57 211.00 383.00
C 198.17 376.02 187.43 376.37 176.25 364.75 C 165.07 353.13 154.56 372.55 141.00 372.00 C 127.44 371.45 122.61 352.91 116.08 342.92 C 109.54 332.94 101.64 319.07 97.00 308.00
C 96.43 305.51 96.41 304.45 97.00 302.00
C 98.42 289.81 116.16 287.17 124.00 281.00
C 119.83 264.66 121.45 247.76 123.00 231.00
C 113.89 225.21 99.40 222.15 97.00 210.00
C 96.33 207.47 96.44 206.45 97.00 204.00
C 98.16 192.83 109.49 181.71 114.75 171.75 C 120.02 161.80 124.53 148.32 134.70 141.70 C 144.86 135.08 159.81 150.57 169.00 154.00
C 180.78 142.90 195.71 134.75 211.00 130.00
C 209.66 113.88 208.56 89.96 230.00 91.00 C 251.44 92.04 266.94 89.95 288.22 91.78 C 309.50 93.60 293.62 124.90 306.23 131.77 C 318.84 138.64 333.26 142.64 343.00 154.00
C 357.19 140.77 380.29 135.13 388.77 155.23 C 397.25 175.33 408.36 184.40 416.00 204.00 Z"/>
</g>
<g fill="#000000" fill-opacity="0.20" stroke="None">
<path d="
M 244.00 31.00 
C 246.77 31.00 249.90 30.20 252.00 30.00
C 249.23 30.00 246.10 30.80 244.00 31.00 Z"/>
</g>
<g fill="#000000" fill-opacity="0.41" stroke="None">
<path d="
M 271.00 31.00 
C 269.71 30.77 267.93 30.08 266.00 30.00
C 267.14 30.16 269.23 30.88 271.00 31.00 Z"/>
</g>
<g fill="#000000" fill-opacity="0.79" stroke="None">
<path d="
M 69.00 82.00 
C 73.54 77.46 78.41 72.59 83.00 68.00
C 78.07 72.21 73.25 77.02 69.00 82.00 Z"/>
</g>
<g fill="#000000" fill-opacity="0.58" stroke="None">
<path d="
M 380.00 72.00 
C 382.00 72.00 384.00 72.00 386.00 72.00
C 385.66 70.53 384.10 69.81 383.00 69.00
C 384.34 71.41 381.68 71.15 380.00 72.00 Z"/>
</g>
<g fill="#000000" fill-opacity="0.59" stroke="None">
<path d="
M 369.00 89.00 
C 368.79 87.22 368.73 84.77 369.00 83.00
C 368.25 85.52 368.39 86.48 369.00 89.00 Z"/>
</g>
<g fill="#000000" fill-opacity="0.27" stroke="None">
<path d="
M 88.00 105.00 
C 93.20 99.80 98.75 94.25 104.00 89.00
C 98.38 93.80 92.84 99.33 88.00 105.00 Z"/>
</g>
<g fill="#000000" fill-opacity="1.00" stroke="None">
<path d="
M 97.00 204.00 
C 96.81 205.82 96.76 208.19 97.00 210.00
C 99.40 222.15 113.89 225.21 123.00 231.00
C 121.45 247.76 119.83 264.66 124.00 281.00
C 116.16 287.17 98.42 289.81 97.00 302.00
C 96.79 303.84 96.81 306.16 97.00 308.00
C 101.64 319.07 109.54 332.94 116.08 342.92 C 122.61 352.91 127.44 371.45 141.00 372.00 C 154.56 372.55 165.07 353.13 176.25 364.75 C 187.43 376.37 198.17 376.02 211.00 383.00
C 209.73 398.57 208.74 421.53 229.00 421.00 C 249.26 420.47 263.69 420.68 284.00 421.00 C 304.31 421.32 301.91 398.36 301.00 383.00
C 317.17 378.24 330.98 367.83 345.00 359.00
C 352.13 364.07 370.95 378.19 379.75 369.75 C 388.55 361.32 393.55 349.74 398.70 339.70 C 403.84 329.65 414.42 318.97 416.00 308.00
C 416.00 308.00 415.99 301.88 416.00 302.00
C 415.54 287.23 389.51 291.08 389.02 278.02 C 388.54 264.97 394.18 244.65 389.00 231.00
C 397.66 224.93 414.61 221.89 416.00 209.00
C 416.01 208.83 416.00 204.06 416.00 204.00
C 408.36 184.40 397.25 175.33 388.77 155.23 C 380.29 135.13 357.19 140.77 343.00 154.00
C 333.26 142.64 318.84 138.64 306.23 131.77 C 293.62 124.90 309.50 93.60 288.22 91.78 C 266.94 89.95 251.44 92.04 230.00 91.00 C 208.56 89.96 209.66 113.88 211.00 130.00
C 195.71 134.75 180.78 142.90 169.00 154.00
C 159.81 150.57 144.86 135.08 134.70 141.70 C 124.53 148.32 120.02 161.80 114.75 171.75 C 109.49 181.71 98.16 192.83 97.00 204.00
M 284.00 221.00 
C 287.33 223.48 290.56 226.72 293.00 230.00
C 304.62 245.63 303.75 269.65 291.00 284.00
C 288.77 286.51 286.46 288.82 284.00 291.00
C 270.78 304.75 244.73 303.95 230.00 293.00
C 226.67 290.52 223.44 287.28 221.00 284.00
C 208.34 266.97 208.37 244.99 221.00 228.00
C 222.98 225.33 225.39 222.94 228.00 221.00
C 245.09 208.29 266.92 208.30 284.00 221.00 Z"/>
</g>
<g fill="#000000" fill-opacity="0.82" stroke="None">
<path d="
M 462.00 110.00 
C 462.19 108.48 462.16 106.52 462.00 105.00
C 462.01 105.14 462.01 109.83 462.00 110.00 Z"/>
</g>
<g fill="#000000" fill-opacity="0.38" stroke="None">
<path d="
M 450.00 122.00 
C 448.12 122.20 445.88 122.16 444.00 122.00
C 446.39 122.48 447.54 122.56 450.00 122.00 Z"/>
</g>
<g fill="#000000" fill-opacity="0.99" stroke="None">
<path d="
M 464.00 163.00 
C 463.75 164.76 463.76 167.24 464.00 169.00
C 467.99 184.10 474.11 196.01 477.22 211.78 C 480.33 227.54 482.00 244.96 482.00 262.00
C 482.00 264.32 482.12 266.68 482.00 269.00
C 480.73 294.64 473.61 326.17 462.32 348.32 C 451.04 370.47 442.12 391.66 423.00 408.00
C 418.05 412.95 413.08 418.25 408.00 423.00
C 390.91 441.66 370.32 451.68 347.69 462.70 C 325.07 473.71 293.97 481.01 268.00 482.00
C 265.34 482.10 262.66 482.00 260.00 482.00
C 254.67 482.00 249.33 482.00 244.00 482.00
C 242.35 482.00 240.64 482.14 239.00 482.00
C 219.68 480.35 195.48 475.24 178.07 467.93 C 160.67 460.61 143.40 455.19 129.00 443.00
C 127.97 442.13 126.29 441.52 126.00 440.00
C 128.00 440.00 130.00 440.00 132.00 440.00
C 137.02 439.09 143.00 434.56 144.00 429.00
C 143.97 429.25 143.96 422.70 144.00 423.00
C 141.84 409.63 119.46 406.83 108.68 403.32 C 97.89 399.81 79.76 391.37 68.00 390.00
C 66.24 389.79 63.75 389.72 62.00 390.00
C 43.06 397.12 52.91 416.05 58.22 430.78 C 63.54 445.51 67.44 460.54 74.03 475.97 C 80.62 491.41 111.58 477.57 100.00 460.00
C 139.78 488.42 186.61 506.93 235.00 512.00
L 238.00 512.00
C 238.83 510.49 241.44 511.00 243.00 511.00
C 244.31 510.58 247.41 510.63 248.00 512.00
L 263.00 512.00
C 264.64 510.50 269.43 510.28 271.00 512.00
L 277.00 512.00
C 330.91 503.61 393.12 486.33 431.00 442.00
C 434.37 438.06 438.11 434.33 442.00 431.00
C 486.34 393.11 503.61 330.86 512.00 277.00
L 512.00 269.00
C 510.57 267.97 510.31 263.96 512.00 263.00
L 512.00 249.00
C 510.53 247.67 510.29 243.26 512.00 242.00
L 512.00 238.00
C 509.70 224.98 508.41 209.18 504.78 196.22 C 501.15 183.26 497.65 171.95 492.30 159.70 C 486.96 147.45 465.97 149.33 464.00 163.00 Z"/>
</g>
<g fill="#000000" fill-opacity="0.37" stroke="None">
<path d="
M 464.00 169.00 
C 463.76 167.24 463.75 164.76 464.00 163.00
C 463.32 165.50 463.33 166.46 464.00 169.00 Z"/>
</g>
<g fill="#000000" fill-opacity="0.76" stroke="None">
<path d="
M 97.00 210.00 
C 96.76 208.19 96.81 205.82 97.00 204.00
C 96.44 206.45 96.33 207.47 97.00 210.00 Z"/>
</g>
<g fill="#000000" fill-opacity="0.78" stroke="None">
<path d="
M 416.00 209.00 
C 416.16 207.50 416.21 205.50 416.00 204.00
C 416.00 204.06 416.01 208.83 416.00 209.00 Z"/>
</g>
<g fill="#000000" fill-opacity="0.01" stroke="None">
<path d="
M 228.00 221.00 
C 225.87 222.86 222.81 225.92 221.00 228.00
C 208.37 244.99 208.34 266.97 221.00 284.00
C 223.46 286.82 227.23 290.59 230.00 293.00
C 244.73 303.95 270.78 304.75 284.00 291.00
C 286.26 288.65 288.70 286.21 291.00 284.00
C 303.75 269.65 304.62 245.63 293.00 230.00
C 290.54 227.18 286.77 223.41 284.00 221.00
C 266.92 208.30 245.09 208.29 228.00 221.00 Z"/>
</g>
<g fill="#000000" fill-opacity="0.16" stroke="None">
<path d="
M 221.00 228.00 
C 222.81 225.92 225.87 222.86 228.00 221.00
C 225.39 222.94 222.98 225.33 221.00 228.00 Z"/>
</g>
<g fill="#000000" fill-opacity="0.25" stroke="None">
<path d="
M 293.00 230.00 
C 290.56 226.72 287.33 223.48 284.00 221.00
C 286.77 223.41 290.54 227.18 293.00 230.00 Z"/>
</g>
<g fill="#000000" fill-opacity="0.73" stroke="None">
<path d="
M 512.00 249.00 
L 512.00 242.00
C 510.29 243.26 510.53 247.67 512.00 249.00 Z"/>
</g>
<g fill="#000000" fill-opacity="0.18" stroke="None">
<path d="
M 30.00 253.00 
C 30.23 250.64 31.00 247.10 31.00 244.00
C 30.77 246.36 30.00 249.90 30.00 253.00 Z"/>
</g>
<g fill="#000000" fill-opacity="0.25" stroke="None">
<path d="
M 482.00 269.00 
C 482.12 266.68 482.00 264.32 482.00 262.00
C 481.81 263.96 481.92 267.05 482.00 269.00 Z"/>
</g>
<g fill="#000000" fill-opacity="0.56" stroke="None">
<path d="
M 0.00 276.00 
C 0.00 276.00 0.99 275.94 1.00 276.00
C 0.71 271.80 1.99 266.44 0.00 263.00
L 0.00 276.00 Z"/>
</g>
<g fill="#000000" fill-opacity="0.78" stroke="None">
<path d="
M 512.00 269.00 
L 512.00 263.00
C 510.31 263.96 510.57 267.97 512.00 269.00 Z"/>
</g>
<g fill="#000000" fill-opacity="0.00" stroke="None">
<path d="
M 442.00 431.00 
C 438.41 434.59 434.54 438.46 431.00 442.00
C 393.12 486.33 330.91 503.61 277.00 512.00
L 512.00 512.00
L 512.00 277.00
C 503.61 330.86 486.34 393.11 442.00 431.00 Z"/>
</g>
<g fill="#000000" fill-opacity="0.27" stroke="None">
<path d="
M 230.00 293.00 
C 227.23 290.59 223.46 286.82 221.00 284.00
C 223.44 287.28 226.67 290.52 230.00 293.00 Z"/>
</g>
<g fill="#000000" fill-opacity="0.16" stroke="None">
<path d="
M 284.00 291.00 
C 286.46 288.82 288.77 286.51 291.00 284.00
C 288.70 286.21 286.26 288.65 284.00 291.00 Z"/>
</g>
<g fill="#000000" fill-opacity="0.76" stroke="None">
<path d="
M 97.00 308.00 
C 96.81 306.16 96.79 303.84 97.00 302.00
C 96.41 304.45 96.43 305.51 97.00 308.00 Z"/>
</g>
<g fill="#000000" fill-opacity="0.75" stroke="None">
<path d="
M 416.00 308.00 
C 416.25 306.28 416.28 303.71 416.00 302.00
C 415.99 301.88 416.00 308.00 416.00 308.00 Z"/>
</g>
<g fill="#000000" fill-opacity="0.36" stroke="None">
<path d="
M 48.00 349.00 
C 48.55 346.58 48.49 345.44 48.00 343.00
C 48.16 344.88 48.20 347.12 48.00 349.00 Z"/>
</g>
<g fill="#000000" fill-opacity="0.38" stroke="None">
<path d="
M 62.00 390.00 
C 63.75 389.72 66.24 389.79 68.00 390.00
C 65.53 389.41 64.56 389.21 62.00 390.00 Z"/>
</g>
<g fill="#000000" fill-opacity="0.26" stroke="None">
<path d="
M 408.00 423.00 
C 413.08 418.25 418.05 412.95 423.00 408.00
C 417.70 412.53 412.75 417.82 408.00 423.00 Z"/>
</g>
<g fill="#000000" fill-opacity="0.57" stroke="None">
<path d="
M 144.00 429.00 
C 144.30 427.35 144.27 424.66 144.00 423.00
C 143.96 422.70 143.97 429.25 144.00 429.00 Z"/>
</g>
<g fill="#000000" fill-opacity="0.81" stroke="None">
<path d="
M 431.00 442.00 
C 434.54 438.46 438.41 434.59 442.00 431.00
C 438.11 434.33 434.37 438.06 431.00 442.00 Z"/>
</g>
<g fill="#000000" fill-opacity="0.58" stroke="None">
<path d="
M 129.00 443.00 
C 127.97 440.59 130.10 440.78 132.00 440.00
C 130.00 440.00 128.00 440.00 126.00 440.00
C 126.29 441.52 127.97 442.13 129.00 443.00 Z"/>
</g>
<g fill="#000000" fill-opacity="0.54" stroke="None">
<path d="
M 239.00 482.00 
C 240.64 482.14 242.35 482.00 244.00 482.00
C 242.87 481.90 240.06 482.00 239.00 482.00 Z"/>
</g>
<g fill="#000000" fill-opacity="0.21" stroke="None">
<path d="
M 260.00 482.00 
C 262.66 482.00 265.34 482.10 268.00 482.00
C 265.73 481.87 262.39 481.77 260.00 482.00 Z"/>
</g>
<g fill="#000000" fill-opacity="0.48" stroke="None">
<path d="
M 238.00 512.00 
L 243.00 512.00
C 243.00 511.50 243.00 511.00 243.00 511.00
C 241.44 511.00 238.83 510.49 238.00 512.00 Z"/>
</g>
<g fill="#000000" fill-opacity="0.74" stroke="None">
<path d="
M 243.00 512.00 
L 248.00 512.00
C 247.41 510.63 244.31 510.58 243.00 511.00
C 243.00 511.00 243.00 511.50 243.00 512.00 Z"/>
</g>
<g fill="#000000" fill-opacity="0.74" stroke="None">
<path d="
M 263.00 512.00 
L 271.00 512.00
C 269.43 510.28 264.64 510.50 263.00 512.00 Z"/>
</g>
</svg>